<?xml version="1.0" encoding="UTF-8" standalone="no"?><svg xmlns="http://www.w3.org/2000/svg" xmlns:xlink="http://www.w3.org/1999/xlink" width="675" height="400" version="1" viewBox="0 0 675 400"><defs><linearGradient id="b"><stop offset="0"/><stop offset=".234" stop-color="#000908"/><stop offset=".436" stop-color="#fe1211"/><stop offset=".499" stop-color="#ffbd08"/><stop offset=".516" stop-color="#fbe339"/><stop offset=".547" stop-color="#eef681"/><stop offset=".611" stop-color="#c0f8ba"/><stop offset=".726" stop-color="#c0f8ba"/><stop offset=".77" stop-color="#9ffded"/><stop offset=".93" stop-color="#65f0f7"/><stop offset="1" stop-color="#68dbfd"/></linearGradient><linearGradient id="a"><stop offset="0"/><stop offset=".34"/><stop offset=".461" stop-color="red"/><stop offset=".477" stop-color="#ff6100"/><stop offset=".495" stop-color="#ffe000"/><stop offset=".509" stop-color="#0f0"/><stop offset=".529" stop-color="#007c9e"/><stop offset=".554" stop-color="#000071"/><stop offset=".571" stop-color="#830087"/><stop offset=".586" stop-color="#ff37c3"/><stop offset=".714"/><stop offset="1"/></linearGradient><linearGradient id="l" gradientUnits="userSpaceOnUse" x1="24" x2="551" xlink:href="#a" gradientTransform="matrix(1.0444467,0,0,1,-15.111165,35.499983)" y1="212.5" y2="212.5"/><filter id="d" width="2.307" y="-.653" x="-.653" height="2.307"><feGaussianBlur stdDeviation="1.361"/></filter><filter id="f"><feGaussianBlur stdDeviation="2.087"/></filter><filter id="g"><feGaussianBlur stdDeviation=".719"/></filter><linearGradient xlink:href="#b" id="c" x1="111.828" y1="332.221" x2="648.328" y2="332.221" gradientUnits="userSpaceOnUse"/></defs><path d="M136.86 306.23c-10.13-.196-19.895 5.587-24.282 15.408-5.848 13.094.063 28.495 13.157 34.343 12.885 5.76 28.002 0 34.062-12.65l479.03-.09c6.062 0 11-4.94 11-11s-4.938-11-11-11l-478.936.06c-2.7-5.81-7-10.15-12.96-12.81-3.27-1.46-6.68-2.18-10.06-2.25z" fill="#f9f9f9" stroke="#000" stroke-miterlimit="2"/><path d="M136.828 308.23c3.117.064 6.255.743 9.282 2.095 5.777 2.58 9.776 6.632 12.28 12.375l.282.594h.656l479.5-.063c4.98 0 9 4.03 9 9 0 4.98-4.02 9-9 9l-479.593.1h-.657l-.25.6c-5.406 12.11-19.68 17.63-31.78 12.22-12.107-5.41-17.533-19.58-12.126-31.69 4.056-9.08 13.055-14.4 22.406-14.22z" fill="url(#c)" stroke="#000" stroke-miterlimit="2"/><path d="M310 10h40v15h-40z" fill="gray"/><path d="M185 10h40v15h-40z" fill="gray"/><path d="M225 10h85v15h-85z"/><path d="M126.5 47.503c.88.352 1.76.717 2.638 1.094.88.378 1.76.768 2.638 1.17.88.404 1.76.82 2.64 1.248.878.43 1.757.87 2.637 1.326.88.46 1.76.93 2.638 1.41.88.48 1.76.98 2.64 1.48.88.51 1.76 1.03 2.64 1.56.88.53 1.76 1.08 2.64 1.63.88.56 1.76 1.12 2.64 1.7.88.58 1.76 1.17 2.64 1.76.88.6 1.76 1.21 2.64 1.82.88.62 1.76 1.24 2.64 1.87.88.63 1.76 1.26 2.64 1.9l2.64 1.92c.88.64 1.76 1.29 2.64 1.93.88.64 1.76 1.28 2.64 1.91.88.64 1.76 1.26 2.64 1.88.88.62 1.76 1.23 2.64 1.83.88.6 1.76 1.18 2.64 1.75.88.57 1.76 1.11 2.64 1.63.88.52 1.76 1.02 2.64 1.49.88.47 1.76.91 2.64 1.32.88.41 1.76.78 2.64 1.12.88.34 1.76.63 2.64.88.88.25 1.76.45 2.64.61.88.15 1.76.25 2.64.3.88.04 1.76.03 2.64-.04.88-.07 1.76-.21 2.64-.41.88-.2 1.76-.47 2.64-.81.88-.34 1.76-.74 2.64-1.22.88-.48 1.76-1.03 2.64-1.65.88-.62 1.76-1.31 2.64-2.07.88-.76 1.76-1.59 2.64-2.49.88-.9 1.76-1.87 2.64-2.89.88-1.03 1.76-2.12 2.64-3.26.88-1.14 1.76-2.34 2.64-3.57.88-1.24 1.76-2.52 2.64-3.83.88-1.3 1.76-2.64 2.64-3.99.88-1.35 1.76-2.71 2.64-4.06.88-1.35 1.76-2.7 2.64-4.01.88-1.32 1.76-2.6 2.64-3.84.88-1.24 1.76-2.42 2.64-3.53.88-1.11 1.76-2.14 2.64-3.07.88-.93 1.76-1.76 2.64-2.47.88-.71 1.76-1.3 2.64-1.74.88-.44 1.76-.74 2.64-.88.88-.14 1.76-.12 2.64.08.88.2 1.76.56 2.64 1.1.88.54 1.76 1.26 2.64 2.15.88.89 1.76 1.95 2.64 3.18.88 1.22 1.76 2.6 2.64 4.12.88 1.52 1.76 3.17 2.64 4.93.88 1.76 1.76 3.61 2.64 5.53.88 1.91 1.76 3.88 2.64 5.86.88 1.97 1.76 3.95 2.64 5.87.88 1.92 1.76 3.78 2.64 5.53.88 1.75 1.76 3.37 2.64 4.82.88 1.44 1.76 2.71 2.64 3.74.88 1.03 1.76 1.82 2.64 2.33.88.51 1.76.74 2.64.66.88-.08 1.76-.47 2.64-1.17.88-.71 1.76-1.72 2.64-3.03.88-1.31 1.76-2.91 2.64-4.76.88-1.85 1.76-3.94 2.64-6.2.88-2.26 1.76-4.69 2.64-7.19.88-2.5 1.76-5.06 2.64-7.57.88-2.51 1.76-4.97 2.64-7.26.88-2.29 1.76-4.39 2.64-6.2.88-1.81 1.76-3.32 2.64-4.43.88-1.11 1.76-1.83 2.64-2.08.88-.25 1.76-.04 2.64.66.88.69 1.76 1.87 2.64 3.48.88 1.61 1.76 3.66 2.64 6.04.88 2.39 1.76 5.11 2.64 8 .88 2.9 1.76 5.98 2.64 9.03.88 3.06 1.76 6.09 2.64 8.89.88 2.8 1.76 5.36 2.64 7.48.88 2.12 1.76 3.8 2.64 4.89.88 1.09 1.76 1.59 2.64 1.41.88-.17 1.76-1.01 2.64-2.49.88-1.47 1.76-3.59 2.63-6.2.88-2.61 1.76-5.72 2.64-9.07.88-3.35 1.76-6.96 2.64-10.49.88-3.54 1.76-7.01 2.64-10.08.88-3.07 1.76-5.74 2.64-7.72.88-1.99 1.76-3.28 2.64-3.72.88-.45 1.76-.03 2.64 1.25.88 1.28 1.76 3.42 2.64 6.23.88 2.81 1.76 6.3 2.64 10.11.88 3.81 1.76 7.93 2.64 11.91.88 3.98 1.76 7.81 2.64 11.01.88 3.21 1.76 5.79 2.64 7.4.88 1.61 1.76 2.23 2.64 1.74.88-.49 1.76-2.09 2.64-4.66.88-2.56 1.76-6.08 2.64-10.13.88-4.05 1.76-8.61 2.64-13.07.88-4.47 1.76-8.81 2.64-12.41.87-3.6 1.75-6.43 2.63-8.03.88-1.61 1.76-1.97 2.64-.98.88.99 1.76 3.34 2.64 6.74.88 3.39 1.76 7.83 2.63 12.616.88 4.79 1.76 9.91 2.64 14.52.88 4.6 1.76 8.67 2.64 11.45.88 2.78 1.75 4.26 2.63 4.11.88-.15 1.76-1.94 2.64-5.1.88-3.16 1.76-7.7 2.64-12.78.88-5.09 1.76-10.71 2.64-15.77.88-5.06 1.76-9.52 2.64-12.46.88-2.93 1.76-4.3 2.64-3.75.88.55 1.76 3.03 2.64 6.98.88 3.95 1.76 9.36 2.64 15.07.88 5.71 1.76 11.69 2.64 16.57.88 4.88 1.76 8.615 2.64 10.27.88 1.66 1.76 1.207 2.64-1.33.88-2.53 1.76-7.15 2.64-12.76.88-5.615 1.76-12.19 2.64-18.065.88-5.88 1.76-10.99 2.64-13.94.88-2.96 1.76-3.71 2.64-1.97.88 1.74 1.76 5.98 2.64 11.62.88 5.64 1.76 12.63 2.64 19 .88 6.37 1.76 12.04 2.64 15.29.88 3.25 1.76 4.028 2.64 1.997.88-2.03 1.75-6.87 2.63-13.1.88-6.24 1.76-13.78 2.64-20.26.88-6.49 1.76-11.79 2.64-14.12.88-2.34 1.76-1.62 2.64 2 .88 3.62 1.76 10.11 2.64 17.32.88 7.21 1.76 15.01 2.64 20.64.88 5.627 1.76 8.93 2.64 8.64.88-.29 1.76-4.23 2.64-10.45.88-6.22 1.76-14.6 2.64-22.01.88-7.4 1.76-13.62 2.64-16.17.88-2.55 1.76-1.32 2.64 3.31.88 4.64 1.76 12.6 2.64 20.69.88 8.09 1.76 16.08 2.64 20.57.88 4.49 1.76 5.31 2.64 1.97.88-3.33 1.76-10.76 2.64-19.1.88-8.34 1.76-17.32 2.64-22.86.88-5.54 1.76-7.39 2.64-4.59.88 2.807 1.76 10.23 2.64 18.86.88 8.63 1.76 18.14 2.64 23.89.88 5.75 1.76 7.467 2.64 4.16.88-3.31 1.76-11.563 2.64-20.67.88-9.11 1.76-18.67 2.64-23.663.88-5 1.76-5.14 2.64-.2.88 4.94 1.76 14.77 2.64 24.23.88 9.47 1.76 18.06 2.64 20.92.88 2.867 1.76-.24 2.64-7.692.88-7.45 1.76-18.88 2.64-27.69.88-8.81 1.76-14.41 2.64-13.35.88 1.05 1.76 8.78 2.64 18.64.88 9.86 1.76 21.19 2.64 26.96.88 5.76 1.76 5.46 2.64-.89.88-6.34 1.76-18.33 2.64-28.29.88-9.97 1.76-17.08 2.64-16.53.88.55 1.76 8.83 2.64 19.41.88 10.59 1.76 22.57 2.64 27.69.88 5.12 1.76 2.8 2.63-5.52.88-8.32 1.76-21.9 2.64-31.1.88-9.19 1.76-12.98 2.64-8.44.88 4.54 1.76 17.04 2.64 28.34.88 11.29 1.76 20.07 2.64 19.57.88-.5 1.76-10.36 2.64-22.14.88-11.78 1.76-24.03 2.63-27.04.88-3.01 1.76 3.75 2.64 15.058.88 11.31 1.76 25.67 2.64 31.34.88 5.67 1.76 1.7 2.64-8.82.88-10.52 1.76-26.09 2.64-33.54.88-7.45 1.76-5.47 2.64 4.44.88 9.9 1.76 26.23 2.64 34.67.88 8.44 1.76 7.41 2.64-2.38.88-9.79 1.76-26.7 2.64-35.4.88-8.7 1.76-7.41 2.64 2.89.88 10.3 1.76 27.72 2.64 35.9.88 8.17 1.76 5.25 2.64-6.18.88-11.43 1.76-29.05 2.64-35.71.88-6.66 1.76-.66 2.64 12.27.88 12.93 1.76 29.87 2.64 33.73.88 3.86 1.76-6.53 2.64-20.76.88-14.23 1.76-28.71 2.64-28.29.88.42 1.76 15.88 2.64 30.25.88 14.37 1.76 23.6 2.64 17.62.88-5.98 1.76-25.69 2.64-37.77.88-12.09 1.76-12.74 2.64-1.01.88 11.73 1.76 32.33 2.64 38.68.88 6.35 1.76-3.91 2.64-19.32.88-15.4 1.76-30.72 2.64-28.114.88 2.61 1.76 22.526 2.64 36.53.88 14.004 1.76 16.74 2.64 4.72.88-12.02 1.76-34.36 2.64-40.04.88-5.68 1.76 7.92 2.64 24.36.88 16.44 1.76 28.814 2.64 21.574.88-7.24 1.76-31.26 2.64-41.89.88-10.63 1.76-2.75 2.64 13.83.88 16.57 1.76 34.09 2.64 29.74.88-4.34 1.76-28.8 2.63-41.41.88-12.61 1.76-6.65 2.64 10.21.88 16.86 1.76 35.78 2.64 31.15.88-4.63 1.76-30.65 2.64-42.69" fill="none" stroke="red" stroke-width="2" stroke-miterlimit="2"/><path d="M153.904 21.75v-3.64l-3.31-4.95h1.382l1.693 2.59c.31.485.6.97.87 1.453.25-.45.57-.955.93-1.517l1.66-2.526h1.32l-3.43 4.95v3.64z" font-size="12" font-family="Arial"/><path d="M265.316 21.75v-8.59h1.166l4.512 6.744V13.16h1.09v8.59h-1.166L266.406 15v6.75z" font-size="12" font-family="Arial" fill="#fff"/><path d="M381.155 21.75v-3.64l-3.31-4.95h1.382l1.694 2.59c.32.485.61.97.88 1.453.26-.45.57-.955.94-1.517l1.67-2.526h1.33l-3.43 4.95v3.64z" font-size="12" font-family="Arial"/><g transform="translate(125.32834,6.7557817)"><circle transform="translate(-15.854665,6.1572494)" cx="452.5" cy="152.5" r="2.5" fill="red"/><circle transform="matrix(0.3,0,0,0.3,300.38017,112.34008)" cx="457.5" cy="152.5" r="2.5" fill="#fff" filter="url(#d)"/><circle transform="translate(-17.927645,1.7504581)" cx="452.5" cy="152.5" r="2.5" fill="navy"/><circle transform="matrix(0.3,0,0,0.3,298.30719,107.93329)" cx="457.5" cy="152.5" r="2.5" fill="#fff" filter="url(#d)"/><circle transform="translate(-19.607023,5.285992)" cx="452.5" cy="152.5" r="2.5" fill="red"/><circle transform="matrix(0.3,0,0,0.3,296.62781,111.46882)" cx="457.5" cy="152.5" r="2.5" fill="#fff" filter="url(#d)"/><circle transform="translate(-14.361781,2.6343416)" cx="452.5" cy="152.5" r="2.5" fill="navy"/><circle transform="matrix(0.3,0,0,0.3,301.87306,108.81718)" cx="457.5" cy="152.5" r="2.5" fill="#fff" filter="url(#d)"/><use width="575" transform="rotate(-120,435.64534,156.15725)" xlink:href="#e" height="400"/><g transform="translate(-14.354665,6.1572494)" id="e" stroke="#000"><ellipse transform="rotate(-41.707338,415.15584,88.122283)" cx="400" cy="157.5" rx="25" ry="7.5" fill="none" stroke-miterlimit="2"/><path d="M465.563 141.22c-1 4.186-4.813 8.5-4.813 8.5s6.625-4.69 7.875-7.19" fill="#f60" fill-rule="evenodd" stroke-width=".5"/><circle transform="matrix(0.67,0,0,0.67,197.4,39.75)" cx="402.5" cy="152.5" r="2.5" fill="#ff0" stroke-width=".746" stroke-miterlimit="2"/></g><use width="575" transform="rotate(120,436.3296,155.76219)" xlink:href="#e" height="400"/></g><g transform="translate(94.581571,4.5776985)"><g transform="matrix(0.5459341,0,0,0.5459341,156.92848,78.449727)" fill-rule="evenodd"><path transform="matrix(0.8984398,0,0,0.8981188,34.075015,17.718602)" d="M316.235 183.625c-10.75-8.5-2.75-15.563 2.25-24 5-8.438 16 10.75 17.75-9.75 1.838-21.535 26.75-15.25 36-4.75s-7 20.5-15.75 22 5 17-11.75 18.75-17.75 6.25-28.5-2.25z" opacity=".5" stroke="#000" stroke-width="2.039" filter="url(#f)"/><path d="M311.25 181c-10.75-8.5-2.75-15.563 2.25-24 5-8.438 16 10.75 17.75-9.75 1.838-21.535 26.75-15.25 36-4.75s-7 20.5-15.75 22 5 17-11.75 18.75-17.75 6.25-28.5-2.25z" fill="#87cdde" stroke="#000" stroke-width="1.832"/><path d="M323.25 167c8.294-2.844 18.25 1 11.75 4.5s-22.25 1.5-18-1.25 5.794-3.094 6.25-3.25z" fill="#f55" stroke="#000" stroke-width="1.832"/><path d="M346 140.25c7.25-.25 12.25-.25 12.25 3.25 0 4.5-2.5 6-12.75 3.25s-5.75-6.5.5-6.5z" fill="#f55" stroke="#000" stroke-width="1.832"/><path d="M316 159.25c.724-.338 4.282-.367 5.75 0 1.425.356-3.204 4.5-4.5 4.5-2.136 0-2.748-1.008-2.25-3 .146-.583.854-.917 1-1.5z" fill="#5f8dd3"/><path d="M339.75 152.5l1.25-.5c2.385-.954 4.413-1.75 7-1.75 1.58 0-2.34 4.442-2.75 4.75-1.35 1.012-4.44.078-5.75-.25-2.012-.503-.78-2.044.25-2.25z" fill="#5f8dd3"/><path d="M358.5 152c1.697-.08 4.49-1.784 5 .25.405 1.62-2.332 3-3.5 3-2.017 0-2.75-.098-2.75-2.25 0-.534.833-.667 1.25-1z" fill="#5f8dd3"/><path d="M344.25 165.5c0-2.765-.25 4.434-.25 6.75 0 1.98-.027 3.942-.75 5.75-.723 1.807-1.677 2.5-3.5 2.5-1.645 0-3.322-.036-4.25-.5-.938-.47 2.728-3.296 3-3.5 1.418-1.064 2.43-2.327 3-3.75.426-1.066.377-2.755 1-4 .55-1.1 1.086-2.143 1.75-3.25z" fill="#5f8dd3"/><path d="M319.853 179.913l1.25-.5c2.385-.954 4.413-1.75 7-1.75 1.58 0-2.34 4.442-2.75 4.75-1.35 1.012-4.44.077-5.75-.25-2.012-.503-.778-2.045.25-2.25z" fill="#5f8dd3"/><path d="M342.82 135.703c1.696-.08 4.49-1.784 5 .25.404 1.62-2.333 3-3.5 3-2.018 0-2.75-.098-2.75-2.25 0-.533.833-.666 1.25-1z" fill="#5f8dd3"/></g><g transform="translate(18.561553,-6.7175144)"><path d="M299.68 145.335c11.813-.125 16.813 2.937 16.313 6.125-.5 3.187-3.688.5-9.063 4s.938 3.5 4.438 9-19.688 17.75-21.688 7.375 1.25-10.063 4.563-12.063c3.312-2-1.688-14.687 5.437-14.437z" opacity=".5" fill-rule="evenodd" filter="url(#g)"/><path d="M297 144.5c11.813-.125 16.813 2.938 16.313 6.125-.5 3.188-3.688.5-9.063 4s.938 3.5 4.438 9S289 181.375 287 171s1.25-10.063 4.563-12.063c3.312-2-1.688-14.687 5.437-14.437z" fill="#c8ab37" fill-rule="evenodd"/><path d="M306.67 151.034c5.685-.06.07-5.923 2.745-4.848 2.883 1.16 4.104 2.78 3.844 4.432-.5 3.188-3.69.5-9.07 4s.93 3.5 4.43 9c1.89 2.978-4.04 7.935-10.19 10.208-2.98 1.1-10.75 1.905-8.4-.31 1.77-1.667 13.22-5.924 13.24-8.003.03-3.57-3.31-1.477-4.28-9.588-.36-3.043 3.7-3.992 7.65-4.89z" fill="#8e7307" fill-rule="evenodd"/><path d="M299.826 147.312c3.958-.136 6.687-.136 6.687 1.774 0 2.457-1.364 3.276-6.96 1.775-5.596-1.5-3.14-3.54.273-3.54z" fill="#5f8dd3" fill-rule="evenodd" stroke="#000"/><path d="M293.32 167.87l.683-.274c1.302-.52 2.41-.955 3.822-.955.863 0-1.277 2.43-1.5 2.6-.738.56-2.425.04-3.14-.13-1.1-.27-.426-1.11.136-1.23z" fill="#5f8dd3" fill-rule="evenodd" stroke="#000"/><path d="M292.188 163.75c1.004.19 2.988-.313 4.375-.313 1.335 0 2.484.254 3.562 1.063.79.592 1.696 1.043.813 1.75-.128.102-.25.208-.375.313-.642.534-2.312.812-3.125.812-1.423 0-2.828.125-4.25.125-1.09 0-1.77-.43-2.563-1.063-.605-.483-.875-1.138-.875-1.875 0-.545 1.088-.662 1.438-.75.305-.076.68 0 1-.062z" fill="#f55" fill-rule="evenodd" stroke="#000"/><path d="M300.874 159.142c.465-.043.62.263.62.795 0 .5-1.125.613-1.504.707-.776.194-.926-.45-.795-.972.033-.134 1.518-.433 1.68-.53z" fill="#4d4d4d" fill-rule="evenodd" stroke="#000" stroke-width=".5"/><path d="M294.598 154.015c.043-.17 1.59-.548 1.59.354 0 .79-.405 1.29-.883 1.76l-.265.26c-.446.44-.912-1-.972-1.24-.122-.49.366-.74.53-1.15z" fill="#4d4d4d" fill-rule="evenodd" stroke="#000" stroke-width=".5"/><path d="M304.675 163.208c.19-.38 1.925.3 2.21.442.775.388-.39 1.423-.708 1.502-.657.164-1.172-.32-1.59-.53-.517-.258-1.194-.895-.62-1.326.19-.143.472-.06.708-.088z" fill="#4d4d4d" fill-rule="evenodd" stroke="#000" stroke-width=".5"/><path d="M291.526 171.898c.464-.043.618.264.618.796 0 .5-1.123.612-1.502.707-.776.2-.926-.45-.796-.97.034-.13 1.518-.43 1.68-.53z" fill="#4d4d4d" fill-rule="evenodd" stroke="#000" stroke-width=".5"/><path d="M310.706 147.945c.465-.043.62.263.62.795 0 .5-1.125.613-1.504.708-.776.194-.926-.45-.795-.973.033-.133 1.518-.433 1.68-.53z" fill="#4d4d4d" fill-rule="evenodd" stroke="#000" stroke-width=".5"/><path d="M297 144.5c11.813-.125 16.813 2.938 16.313 6.125-.5 3.188-3.688.5-9.063 4s.938 3.5 4.438 9S289 181.375 287 171s1.25-10.063 4.563-12.063c3.312-2-1.688-14.687 5.437-14.437z" fill="none" stroke="#000"/><path d="M293.97 161.944c-.043.17-1.59.548-1.59-.353 0-.79.405-1.29.883-1.76.088-.09.177-.17.265-.26.446-.44.912 1 .972 1.24.122.49-.366.74-.53 1.15z" fill="#8e7307" fill-rule="evenodd"/></g><path d="M306.442 154.37c-.51-.147-1.55-.47-2.298-.62-.175-.035-.353-.06-.53-.088-.92-.154-1.693-.063-2.387.353" fill="none" stroke="#000" stroke-linecap="round"/><path d="M311.295 148.327c-.286 0-2.63-1.847-3.536-2.21-.45-.18-1.42-.177-1.95-.177" fill="none" stroke="#000" stroke-linecap="round"/><path d="M311.325 145.964c-.016-.007-.82-1.31-1.326-1.59-1.17-.65-2.48-1.062-3.8-1.062" fill="none" stroke="#000" stroke-linecap="round"/><path d="M311.29 142.503c-.935-.518-2.484-1.673-3.89-2.298-.427-.19-.848-.556-1.15-.707" fill="none" stroke="#000" stroke-linecap="round"/><path d="M312.142 139.862c-1.1-.49-2.864-1.754-4.33-2.12-.24-.06-.473-.12-.708-.178" fill="none" stroke="#000" stroke-linecap="round"/><path d="M313.285 138.204c-1.007-.25-2.642-2.046-4.154-2.298-.05-.01-.11 0-.17 0" fill="none" stroke="#000" stroke-linecap="round"/><path d="M316.28 137.836c-.857-.143-2.653-2.37-3.8-2.83-.063-.023-.12-.058-.178-.087" fill="none" stroke="#000" stroke-linecap="round"/><path d="M319.877 138.017c-.465-.186.05-1.02-.088-1.503-.42-1.47-3.58-2.507-4.87-2.828" fill="none" stroke="#000"/><path d="M322.352 138.105c-.066-.232.427-.913 0-1.767-.165-.33-.353-.65-.53-.973-.212-.388-.496-.425-.884-.618" fill="none" stroke="#000" stroke-linecap="round"/><path d="M325.18 138.282c-.283-.52.796-.998.796-1.59 0-.564-.22-1.18-.53-1.592" fill="none" stroke="#000" stroke-linecap="round"/><path d="M327.302 139.166c0-.096 1.283-1.205 1.68-1.503.302-.226-.232-1.422-.266-1.59" fill="none" stroke="#000" stroke-linecap="round"/><path d="M329.69 139.873c.387-.29 1.438-.467 2.12-1.15.61-.61-.156-1.387-.53-1.855-.042-.052-.118-.06-.177-.09" fill="none" stroke="#000" stroke-linecap="round"/><path d="M331.28 141.552c-.304-.38 1.07-.01 1.414-.353.616-.62 1.256-.47 1.414-1.42.053-.32-.296-.53-.53-.71" fill="none" stroke="#000" stroke-linecap="round"/><path d="M332.22 143.94c.09-.527 1.135.097 1.592-.178.68-.408 1.653-.907 2.033-1.414" fill="none" stroke="#000" stroke-linecap="round"/><path d="M331.338 145.176c.047-.063 1.44.898 1.767 1.06.385.193 1.416-.773 1.857-.883" fill="none" stroke="#000" stroke-linecap="round"/><path d="M330.1 145.65c.526-.133.377 1.017.62 1.5.365.734.882.944 1.59.708" fill="none" stroke="#000" stroke-linecap="round"/><path d="M327.656 146.414c.283.566.79 1.607 1.414 2.386.346.433.093.245.53.354" fill="none" stroke="#000" stroke-linecap="round"/><path d="M324.562 146.944c.086.107.467 1.928.796 2.475.335.55 1.033.54 1.59.61" fill="none" stroke="#000" stroke-linecap="round"/><path d="M322.352 148.712c.268.446.794 1.368 1.326 2.033.36.45.63.227.884.177" fill="none" stroke="#000" stroke-linecap="round"/><path d="M323.413 152.6c.177.222 1.647.09 2.21.09h.265" fill="none" stroke="#000" stroke-linecap="round"/><path d="M326.24 154.988c.246 0 1.375-.412 2.123-.973.097-.073.06-.235.088-.353" fill="none" stroke="#000" stroke-linecap="round"/><path d="M327.214 156.402c.584-.44 2.274.6 3.005-.62.82-1.374-.45 1.112.17-.44" fill="none" stroke="#000" stroke-linecap="round"/><path d="M327.39 158.965c.397-.66 1.557-.053 2.3-.265.178-.05.352-.118.53-.177.087-.03.176-.06.264-.088" fill="none" stroke="#000" stroke-linecap="round"/><path d="M326.86 160.82c.338-.11.616.443.972.443.39 0 .556-.013.884-.177" fill="none" stroke="#000" stroke-linecap="round"/><path d="M325.623 162.324c.425 0 .406.76.707 1.06.367.367 1.373.708 1.944.708" fill="none" stroke="#000" stroke-linecap="round"/><path d="M323.678 163.738c.408.407.48 1.482 1.414 1.856.36.144.277-.092.53-.177" fill="none" stroke="#000" stroke-linecap="round"/><path d="M321.115 165.506c.447.178.838 2.173 2.033 2.65.265.107.673 0 .972 0" fill="none" stroke="#000" stroke-linecap="round"/><path d="M319.26 166.566c.643.258.13 1.413.44 2.033.16.31.365.67.53.88" fill="none" stroke="#000" stroke-linecap="round"/><path d="M317.226 167.097c.092.184.44 1.94.618 2.65.075.3.576.754.796.974" fill="none" stroke="#000" stroke-linecap="round"/><path d="M314.574 167.98c.106.423.305 1.66.53 2.564.186.743.695 1.15 1.415 1.15" fill="none" stroke="#000" stroke-linecap="round"/><path d="M311.48 168.423c.046.18.354 1.313.354 2.032 0 1.03.532.885 1.238 1.238.238.12.246.1.44.177" fill="none" stroke="#000" stroke-linecap="round"/><path d="M309.448 168.07c.33.164-.53.602-.53.97 0 .93-.037 1.52.353 2.3l.18.353c.16.324.57.467.8.62" fill="none" stroke="#000" stroke-linecap="round"/><path d="M307.68 167.45c.09.18-1.464-.392-2.298.442-.24.24-.37 1.723-.53 2.122" fill="none" stroke="#000" stroke-linecap="round"/><path d="M305.47 165.506c-.44.44-1.235-.177-1.856-.177-.82 0-1.138.17-1.856.35" fill="none" stroke="#000" stroke-linecap="round"/><path d="M305.117 161.705c-.845 0-2.31-.707-3.536-.707-.3 0-.17.675-.17.884" fill="none" stroke="#000" stroke-linecap="round"/><path d="M304.586 158.17c-.52 0-1.814-.62-2.74-.62h-.884" fill="none" stroke="#000" stroke-linecap="round"/><path d="M305.028 155.783c-.615 0-1.84-.53-2.74-.53-.398 0-.766.024-1.15.088" fill="none" stroke="#000" stroke-linecap="round"/><path d="M311 151.125c-.23-.364-1.066-1.19-1.688-1.5-.55-.276-.942-.66-1.5-.938-.385-.192-.772-.396-1.187-.5-.27-.067-.545-.12-.813-.187" fill="none" stroke="#000" stroke-linecap="round"/><path d="M308.75 153.188c-.473-.12-1.308-.936-1.938-1.25-.1-.05-.208-.084-.312-.125-.475-.19-1.08-.438-1.625-.438-.203 0-.313.016-.5.063" fill="none" stroke="#000" stroke-linecap="round"/></g><path d="M125 10h525v15H125z" fill="none" stroke="#000" stroke-width="2" stroke-linecap="round" stroke-miterlimit="2"/><path d="M185.5 9.5v15" fill="none" stroke="#000"/><path d="M225.5 9.5v15" fill="none" stroke="#000"/><path d="M310.5 9.5v15" fill="none" stroke="#000"/><path d="M350 10v15" fill="none" stroke="#000"/><path d="M415 10v15" fill="none" stroke="#000"/><path d="M415 10h235v15H415z"/><g transform="translate(139.07365,-1.5777644)"><path d="M361.96 172.167l-1.494 1.325 5.173 6.015 1.52-1.31z" fill="#fff" fill-rule="evenodd" stroke="#000"/><path d="M362.83 170.782l7.968-6.344-1.25-1.562-7.97 6.344" fill="#fff" fill-rule="evenodd" stroke="#000"/><path d="M367.813 146L358 149.28l-.75.25.094.782 1.687 17.563-8.4-8.47-.69-.718-.72.72-10.06 10.062 1.41 1.43 9.35-9.38 9.66 9.72 1.97 2-.25-2.82-1.9-19.53 9.1-3z" fill="#fff" fill-rule="evenodd" stroke="#000"/><g transform="matrix(0.7,0,0,0.7,107.11916,48.199053)"><circle transform="matrix(1.5,0,0,1.5,-305.8845,-87.784362)" cx="452.5" cy="152.5" r="2.5" fill="navy" stroke="#000" stroke-width=".952" stroke-miterlimit="2"/><circle transform="matrix(0.45,0,0,0.45,168.35466,71.842751)" cx="457.5" cy="152.5" r="2.5" fill="#fff" filter="url(#d)"/></g><g transform="translate(-0.3964466,6.4895499)"><circle transform="matrix(1.5,0,0,1.5,-318,-64.002113)" cx="452.5" cy="152.5" r="2.5" fill="#f60" stroke="#000" stroke-width=".667" stroke-miterlimit="2"/><circle transform="matrix(0.45,0,0,0.45,156.23916,95.625)" cx="457.5" cy="152.5" r="2.5" fill="#fff" filter="url(#d)"/></g><g transform="translate(-10,14.502113)"><circle transform="matrix(1.5,0,0,1.5,-328.75,-73.252113)" cx="452.5" cy="152.5" r="2.5" fill="green" stroke="#000" stroke-width=".667" stroke-miterlimit="2"/><circle transform="matrix(0.45,0,0,0.45,145.48916,86.375)" cx="457.5" cy="152.5" r="2.5" fill="#fff" filter="url(#d)"/></g><g transform="translate(-5.75,-14.25)"><circle transform="matrix(1.5,0,0,1.5,-323,-54.002113)" cx="452.5" cy="152.5" r="2.5" fill="red" stroke="#000" stroke-width=".667" stroke-miterlimit="2"/><circle transform="matrix(0.45,0,0,0.45,151.23916,105.625)" cx="457.5" cy="152.5" r="2.5" fill="#fff" filter="url(#d)"/></g><g transform="translate(8.63584,-5)"><circle transform="matrix(1.5,0,0,1.5,-328.75,-73.252113)" cx="452.5" cy="152.5" r="2.5" fill="green" stroke="#000" stroke-width=".667" stroke-miterlimit="2"/><circle transform="matrix(0.45,0,0,0.45,145.48916,86.375)" cx="457.5" cy="152.5" r="2.5" fill="#fff" filter="url(#d)"/></g><circle transform="matrix(1.05,0,0,1.05,-104.38008,2.8174506)" cx="452.5" cy="152.5" r="2.5" fill="#d4aa00" stroke="#000" stroke-width=".952" stroke-miterlimit="2"/><circle transform="matrix(0.315,0,0,0.315,227.58733,114.55643)" cx="457.5" cy="152.5" r="2.5" fill="#fff" filter="url(#d)"/><g transform="matrix(0.7,0,0,0.7,106.86645,81.06029)"><circle transform="matrix(1.5,0,0,1.5,-305.8845,-87.784362)" cx="452.5" cy="152.5" r="2.5" fill="navy" stroke="#000" stroke-width=".952" stroke-miterlimit="2"/><circle transform="matrix(0.45,0,0,0.45,168.35466,71.842751)" cx="457.5" cy="152.5" r="2.5" fill="#fff" filter="url(#d)"/></g></g><g transform="translate(114.00003,5.0403537)"><use width="575" transform="translate(-2.117859,9.71742)" xlink:href="#h" height="400"/><use width="575" transform="translate(14.382141,1.46742)" xlink:href="#h" height="400"/><use width="575" transform="translate(8.257141,-8.90758)" xlink:href="#h" height="400"/><g transform="translate(23,-6.375)" id="i" stroke-miterlimit="2"><circle transform="matrix(2,0,0,2,-400.87262,-146.91412)" cx="452.5" cy="152.5" r="2.5" fill="red" stroke="#000" stroke-width=".5"/><circle transform="matrix(0.6,0,0,0.6,231.59704,65.451545)" cx="457.5" cy="152.5" r="2.5" fill="#fff" filter="url(#d)"/></g><use width="575" transform="translate(-20.125,7.375)" xlink:href="#i" height="400"/><use width="575" transform="translate(-6.377379,-0.08588003)" xlink:href="#i" height="400"/><use width="575" transform="translate(-2.002379,11.16412)" xlink:href="#i" height="400"/><use width="575" transform="translate(-18.627379,0.41412)" xlink:href="#i" height="400"/><use width="575" transform="translate(4.75,4.75)" xlink:href="#h" height="400"/><use width="575" transform="translate(-15.002379,9.91412)" xlink:href="#i" height="400"/><use width="575" transform="translate(11.132141,-0.65758)" xlink:href="#h" height="400"/><use width="575" transform="translate(1.132141,-8.15758)" xlink:href="#h" height="400"/><g transform="translate(23.625,15.5)" id="h" stroke-miterlimit="2"><circle transform="matrix(2,0,0,2,-414.88214,-164.46742)" cx="452.5" cy="152.5" r="2.5" fill="navy" stroke="#000" stroke-width=".5"/><circle transform="matrix(0.6,0,0,0.6,217.58754,47.898265)" cx="457.5" cy="152.5" r="2.5" fill="#fff" filter="url(#d)"/></g><use width="575" transform="translate(-8.627379,14.53912)" xlink:href="#i" height="400"/></g><g transform="matrix(0.09620146,-0.1278487,0.1278487,0.09620146,239.99513,174.24563)"><g transform="translate(732.0784,-15.77421)" opacity=".34"><g id="j" transform="translate(-457,-114)"><path d="M-44.127 295.725c-5 0-.5 12-8 12s-6.06-15.5-14.56-15.5c-6.11 13.446-2.304 107.594.06 122.5 8.182 0 4.41-44.197 6.5-52 .764-2.85 34.5 53.5 37 57.5s5.5 10 27 10 30.5-10.5 39.5-19 21.5-22.5 21.5-42-21.5-35.5-21.5-40 31.5-7 31.5-37 27-56.5 27-71.5-25.5-16-50-4.5-41 23-70.75 51.5"/><path d="M-63.127 364.725c8 12.5 40 57.5 45 60s-32.5-60-47-67"/><path d="M-63.243 295.725c4.243-12.544 23.366-22.246 24.866-30.5 1.432-7.877 3.952-6.663 3.952.84 0 5.8-27.452 27.644-26.202 30.598"/></g><use width="400" transform="matrix(-1,0,0,1,-1046.113,0)" xlink:href="#j" height="360"/></g><g transform="translate(-1.921573,7.22579)"><g id="k" fill-rule="evenodd"><path d="M219 178c29 0 85-7 89-4s-1 15 3.5 18.5 21 22 20.5 27.5-10.5 33.5-14.5 37-54.5 26.5-62 21-46.89-57.717-46.5-62c.5-5.5 11-38 10-38z" fill="silver"/><path d="M306.5 85.5c-14.347 6.94-74.894 57.183-83 81.5-3 9 13.5 12 32.5 11s74 0 78-9 18-80 24-86.5-41.406-1.882-51.5 3z" fill="#949494"/><path d="M208 221c8 12.5 40 57.5 45 60s3.5-1 0-6.5-32.5-53.5-47-60.5" fill="#474747"/><path d="M222 167.75c1.75-9.75.5-15.25 30.25-43.75S296.813 87.936 299 88c8.563.25-22.84 29.87-41.5 43-14.248 10.026-35 37.25-35.5 36.75z" fill="#474747"/><path d="M218.496 168.374c25.102-11.667 31.466-16.617 48.083-27.93 16.61-11.314 30.05-25.81 28.28-27.224-1.77-1.414-20.51-.354-20.51-.354l14.49-13.08s5.3 4.24 10.96 6.363c5.65 2.12 30.05.35 30.05.35l3.89 5.3s-23.34-.36-28.29 2.83c-4.95 3.18-18.03 21.56-32.53 31.46-14.5 9.9-52.68 27.22-52.68 27.22" fill="#474747"/><path d="M294.864 120.998c14.31 3.225 24.78 1.887 36.062.707 3.375-.353 7.598 9.062 3.536 9.546-23.183 2.77-37.212 2.04-47.73-1.06" fill="#474747"/><path d="M274.71 140.09c24.043 7.424 44.55 9.9 54.448 8.84 9.9-1.062 22.628 5.302-.707 4.948-23.33-.353-53.03-6.717-56.92-9.192" fill="#474747"/><path d="M217.5 198.5c4 1 40 60.5 47 72.5s14.323 14.934 3-4c-7.625-12.75-39-65-47.5-70.5" fill="#474747"/><path d="M223 194c29 14.5 52.5 53 60 72 5.014 12.703 9.307 9.538 5.5-.5-5.5-14.5-31-61-64.5-76" fill="#474747"/><path d="M258.75 220.5c17.25.75 34.5 17.75 42.25 34 6.035 12.655 7.21 9.876 3-1-6-15.5-27.75-39.5-48.75-37.5" fill="#474747"/><path d="M258.8 186.405c7.072 13.435 12.73 19.446 24.396 24.395 11.668 4.95 6.01 9.193 6.01 9.193s3.536 3.287 3.89.707c.912-6.655-1.124-10.45 33.587.707 3.515 1.13 4.112-3.99-2.12-5.657-32.754-8.758-43.4-9.28-55.155-21.92 21.832 4.33 29.922 6.8 44.9 5.303 3.537-.353-1.767-5.303-6.717-4.95-18.01 1.287-49.14-10.606-49.14-10.606" fill="#474747"/><path d="M317.844 238.024c-14.85-13.79-21.92-16.263-25.102-19.8-3.182-3.534-13.788 7.426-13.788 7.426s1.414 4.95 3.182 3.182c1.767-1.768 7.07-14.142 30.76 9.192" fill="#474747"/><path d="M207.884 152c4.243-12.544 23.366-22.247 24.866-30.5 1.432-7.878 3.952-6.663 3.952.84 0 5.8-27.077 27.33-25.827 30.285" fill="#474747"/><path d="M204.44 148.5c-6.11 13.445-2.304 107.593.06 122.5 8.182 0 3.5-44.5 6.5-52s18-25 16-28.5-4.013-9.5 5.5-9.5c4.5 0 18.5 7 25.5 7s19.5-9.5 29.5-9.5 14 2 16 7-.5 9.5 1 12.5 11.5 0 14.5 7 9 26 5 28.5-12-2-14.5 1 8.5 6.5.5 13.5-7.5-1-10 1 .5 9.5-6 13-10.5-4.5-13.5-3-2 10-6.5 11-4.5-7.5-9-6-2 5-7.5 6-12 2.5-9.5 6.5 5.5 10 27 10 30.5-10.5 39.5-19 21.5-22.5 21.5-42-21.5-35.5-21.5-40 31.5-7 31.5-37S373 92 373 77s-25.5-16-50-4.5c-28.142 13.21-32.5 17-32.5 21.5 0 5.22 40 13.5 40 20.5s-14.535 8.354-14.535 13.475c0 5.84 14.535 4.025 14.535 10.025 0 11.662-19.253 9.12-19.253 13.207 0 4.1 18.503.41 18.503 10.043 0 6.753-36.25 7.25-51.75 9.75-27.753 4.476-45 4-48 1s2-20-3-20-.5 12-8 12-6.06-15.5-14.56-15.5zm109.81-56.375c0-7.28 6-6.99 6 0s-6 7.28-6 0zm18.25 10.625c18.505 0 3.01-9.5 0-9.5-3.26 0-18.255 9.5 0 9.5zm5.62 8.06c-8.26 9.338 3.45 5.757 4.795 4.237 1.455-1.645 3.35-13.452-4.796-4.238z"/></g><use width="400" transform="matrix(-1,0,0,1,409.5,0)" xlink:href="#k" height="360"/></g></g><g transform="translate(115.07629,-1)"><g transform="matrix(0.8296887,0,0,0.8296887,66.127727,31.018593)"><path d="M175.943 193.622l34.26-51.52S219.34 126.29 222 128.158c2.658 1.867-9.14 15.812-9.14 15.812l-36.917 49.652" fill="#b3b3b3" fill-rule="evenodd" stroke="#000" stroke-width=".603"/><ellipse transform="matrix(0.2656034,0.1865733,-0.4182815,0.5945354,227.79363,45.17935)" cx="132.5" cy="110" rx="2.5" ry="10" fill="#fff" stroke="#000" stroke-width="1.241" stroke-linecap="round" stroke-miterlimit="2"/><path d="M219.037 135.96c6.114 2.17 12.905 4.33 18.374 7.007 7.12 3.482 15.21 12.904-37.12 27.577-48.09 13.465-36.77 5.303-36.77 5.303m43.49-57.806c-9.73 8.71-1.06 13.18 10.77 17.47" fill="none" stroke="navy" stroke-width="1.205"/></g><circle transform="translate(260.48306,70.003571)" cx="-47.73" cy="120.693" r="5.303" fill="none" stroke="#000" stroke-width="2" stroke-linecap="round" stroke-miterlimit="2"/></g><g transform="translate(8)"><g transform="translate(93.998973,5.5125887)" fill="#4a6270" fill-rule="evenodd"><path d="M28.488 124.977v5.154h-.243v.77h.247v.32l-.118.44h-.125c-.13 0-.26.13-.26.25v.25h-.12c-.11 0-.25.13-.25.26v.75h-.13c-.13 0-.26.13-.26.26v1.01h-.13c-.13 0-.25.13-.25.25v1.13h-.13c-.13 0-.26.13-.26.26v2.14h-.26c-.12 0-.25.12-.25.25v3.02h-.25c-.13 0-.25.13-.25.25v5.14h-.25c-.13 0-.25.13-.25.26v6.53c0 .12-.26.16-.26.26v33.59h22.2v-33.6c0-.1-.25-.14-.25-.25v-6.53c0-.12-.13-.25-.25-.25h-.25v-5.14c0-.12-.13-.25-.26-.25h-.25v-3.01c0-.13-.13-.25-.25-.25h-.26v-2.14c0-.13-.13-.26-.26-.26h-.12v-1.12c0-.12-.13-.25-.25-.25h-.13v-1c0-.13-.12-.26-.25-.26H44v-.74c0-.13-.14-.25-.25-.25h-.12v-.25c0-.12-.127-.25-.25-.25h-.12l-.12-.43v-.32h.243v-.76h-.245V125h-.464v5.153h-.24v.76h.25v.323l-.12.434h-.128c-.127 0-.25.13-.25.25v.25h-.12c-.11 0-.25.124-.25.252v.745h-.13c-.13 0-.25.13-.25.255v1.004h-.13c-.12 0-.25.125-.25.25v1.125h-.123c-.13 0-.257.13-.257.26v2.14h-.25c-.12 0-.25.12-.25.25v3.02h-.247c-.12 0-.25.13-.25.25v5.14h-.25c-.12 0-.25.13-.25.26v6.53c0 .12-.25.16-.25.26v9.28h-6.22v-9.28c0-.1-.26-.14-.26-.25v-6.53c0-.12-.13-.26-.25-.26h-.25v-5.14c0-.12-.13-.25-.26-.25h-.25v-3.01c0-.13-.13-.24-.25-.24h-.26v-2.14c0-.13-.13-.26-.26-.26h-.12v-1.13c0-.12-.13-.25-.25-.25h-.13v-1c0-.12-.12-.25-.25-.25h-.13v-.75c0-.13-.14-.25-.25-.25h-.13v-.25c0-.12-.13-.25-.25-.25h-.13l-.11-.43v-.33h.24v-.76h-.24V125h-.3zM32.72 164.5h2.887l.008.01-2.895 5.724V164.5zm3.3 0h2.913v5.78l-2.918-5.773zm-.205.41l3.118 6.27v13.414H32.72v-13.462z"/><path d="M57.032 125.97v5.044h-.11c-.1 0-.255.134-.255.258v3.625c0 .14-.152.112-.153.263v3.27c0 .112-.12.137-.12.252v1.18l-.89 2.448h-.496c-.123 0-.255.13-.255.25v.633h-.372c-.12 0-.25.126-.25.25v3.515h-.37c-.12 0-.25.12-.25.25v4.265c0 .18-.37.26-.37.38v20.46h-.62c-.13 0-.25.124-.25.25v4.52h-1.38c-.13 0-.25.126-.25.255v6.774h-1.89c-.12 0-.25.124-.25.25v3.092h17.65v-3.09c0-.128-.12-.252-.25-.252h-1.89v-6.774c0-.13-.12-.255-.25-.255h-1.37v-4.52c0-.126-.12-.25-.25-.25h-.63v-20.46c0-.12-.38-.2-.38-.38v-4.264c0-.14-.12-.26-.25-.26h-.37v-3.52c0-.13-.13-.25-.25-.25h-.37v-.64c0-.12-.13-.25-.25-.25h-.5l-.89-2.45v-1.18c0-.12-.12-.14-.12-.26v-3.27c0-.15-.15-.12-.15-.26v-3.63c0-.12-.15-.26-.25-.26h-.11v-5.05h-.32z"/></g><text x="114.849" y="214.031" font-size="12" font-family="Arial"><tspan x="114.849" y="214.031">Buildings</tspan></text></g><g stroke="#000" transform="matrix(0.05,0,0,0.05,209.02566,131.91209)" stroke-width="5"><path d="M-98.546 1179.505c-29.61-16.518-16.258-52.565-44.497-69.886 6.88-44.09 8.522-89.17-4.676-132.41-1.94-43.97-26.46-86.13-12.88-130.78-9.91-42.03-14.78-86.82-16.56-130.84-2.9-23.66-21.2-92.19-20.93-31.99-5.95 42.54 6.17 86.15-5.94 128.16 14.19 34.13 16.77 71.42 7.62 107.29-6.6 42.69-9.67 85.63-1.12 128.43 14.57 38.26-3.07 64.16-41.21 69.99-5.81 34.37-75.09 62.74-83.69 19.52-1.13-46.63 80.19-48.74 66.5-103.46-10.58-66.77-36.23-132.64-26-201.22-12.63-49.01-26.99-98.15-27.53-149.2.07-42.26-18.93-85.65-2.29-126.8 7.31-34.05-.13-70.67 15.28-103 10.29-34.26-13.12-68.67-12.33-103.52-22.46 7.62-65.59 42.16-101.6 35.97-46.17-1.55-31.38-65.45-34.78-97.63-.37-31.62 9.41-63.26 9.47-94.33-10.39-34.12-22.41-75.47-8.5-109.08 15.48 8.89 22.59-19.29 35.36-17.96 26.4-22.12 34.12 34.32 30 60.98-.25 18.14 41.47-28 40.01 4.94-31.52 32.88-52.05 75.99-45.73 122.91-.88 60.66 42.15-5.51 61.3-20.04 32.84-17.9 106.01-25.17 85.83-79.2-18.85-33.23-45.03-87.21-7.23-115.5 23.82-33.92 76.96-41.38 104.33-5.55 37.94 38.9 9.17 82.34-6.08 122.32-8.74 33.64 34.09 48.26 55.54 63.26 57.01 1.38 58.31 68.42 63.75 109.2 5.57 44.29 5.47 88.85 15.24 132.49-.99 60.66-25.25 118.38-26.74 179.13 2.05 33-37.14 46.44-32.44 78.5-10.38 44.16-21.8 91.4-4.56 135.58 15.31 61.54-2.13 123.92-12.89 184.51-8.8 39.97 21.47 71.24 33.09 107.03-1.37 21.52-21.94 37.85-43.06 32.17zm12.55-5.09c-20.036-4.244-1.077-39.424 8.65-6.787 10.45 6.16-18.878-28.034-1.345-20.572 2.24-17.664 25.1 29.513 7.56-4.8 17.11 1.833-14.21-57.95-31.74-67.238 13.55-33.786 13.1-77.844 22.02-115.825 7.99-42.86 7.43-90.937-11.47-129.927 2.44-21.188 6.59-42.18-4.75-45.53 8.11-29.105 44.6-87.005-5.46-88.24 2.49-16.88 35.52-77.99-3.66-46.354-40.52-7.65 25.03-43.8 20-69.162 2.31-36.47-17.36-67.824-10.85-100.712-15.94-42.003 8.33-81.942 2.7-124.452-3.33-25.555-50.38 6.805-71.77-6.114-34.74-15.67-73.17 15.488-113.12-2.237-18.57-13.67-29.53-18.355-22.14 9.9C-291 401.82-283.55 447-296.43 491.32c16.57 15.22-16.53 20.575-5.348 46.28-2.418 28.52-16.97 56.16-7.424 85.62 10.88 49.035.22 102.818 22.39 148.865 10.17 5.347 18.76 26.496.84 13.288 1.066 31.987 26.187 57.06 8.537 75.522-2.485 65.477 25.966 127.167 28.865 191.88 0 31.576-44.643 47.374-56.405 57.537 21.95 5.517-32.55 38.18 5.903 14.928 26.9-10.28-33.67 28.9 10.194 4.425 22.58 1.878-51.685 29.943-3.235 25.033 35.4-3.97 41.22-43.133 70-59.245 35.95 20.617 16.45-52.93 14.63-77.475-11.586-35.02 5.53-68.194.083-100.426 14.553-22.173 12.286-84.916-2.495-87.7-2.546 55.866-13.83-16.475 1.254-31.998 9.57-43.177-4-87.817 5.51-131.16 6.17-26.052-38.51-23.34-23.08-56.725-3.6-27.59-37.03-42.51-39.89-75.87-19.25-41.07 21.04 14.87 19.62 31.19 24.68 20.28 27.45 42.74 30.6 72.62 20.78 13.18-14.36-41.77 8.14-43.51-4.24 17.88 9.9 57.62 10.28 18.8-3.48-29.01 13.1-25.22 6.99 1.32-3.64 20.51-4.24 40.04 5.41 7.98-10.77-21.25 15.42-52.9 5.17-13.79-10.28 43.31 7.42 82.3 11.01 127.68-.01 48.27 9.12 95.3 33.02 137.47 9.65 53.39-24.1-61.47-21.75-2.33-5.4 38.26 21.44 69.67 16.22 106.77 18.04 21.94 9.06 60.67 8.9 93.88 24.77 32.02-3.21 92.28 44.28 103.32l2.15-1.13zm-130.11-93.6c-4.248-14.172 6.405-74.734 6.976-30.457-3.22 6.045 4.066 33.238-6.975 30.458zm79.685-223.008c-10.97-11.79-16.94-78.674-3.18-31.742-5.7 13.202 28.98 38.113 3.18 31.742zm25.77.14c1.22-37.662 21.42-10.532 0 0zm3.35-34.718c-6.04-23.81 16.29-33.65 5.23-3.73.87 2.27-3.08 7.98-5.24 3.72zm-149.78-1.59c-5.54-16.63-20.11-44.28 6.08-21.2 28.51 8.27-11.02 8.48-6.08 21.19zm87.06-233.71c17.9-20.53 29.91-56.99 48.12-79.73-8.31 26.43-20.4 65.6-48.12 79.72zm-41.9-97.43c2.96-22.58 26.37 7.05 0 0zm-43.14-43.69c27.93-13.55 19.05-85.28 60.43-72.28-42.08 3.09-20.09 69.46-60.44 72.28zm106.13-.86c-10.38-19.59-39.51-63.82-35.58-72.71 18.6 18.43 32.95 56.59 40.37 74.16l-4.8-1.46zm77.57 711.95c-7.44-9.39 1.65 7.22 0 0zm-240.51-36.54c4.01-7.63-8.44 6.74 0 0zm187.68-7.98c-5.22-47.53-22.95 11.34 0 0zm32.55-422.98c11.65-14.57 35.42-75.59 20.28-24.57-9.04 16.32-13.64 34.44 1.68 8.37-1.28-28.29 31-31.97 13.04-1.17 24.25-35.5 8.32-80.95 24-119.85 11.48-45.01 22.63-92.86 5.16-138-3.57-27.63 2.37-57.03-6.78-83.77-19.25 26.83 10.03-58.03-13.65-71.16-6.23-32.37-52.64-25.91-60.7-36.79-2.48-10.76-40.34-42.17-41.26-20.26-5.3-21.83-.34-52.1-24.85-19.81-21.78 31.87-58.13-26.49-58.55 16.07-17.94 7.92-55.33 33.31-11.33 27.07 20.93-6.79 44.45 5.81 8.06 5.18-36.05.12-89.13-9.68-104.01 34.74 15.57 12.81-56.92 16.22-31.01 48.02 7.04 14.68.93 59.67-4.12 19.51-5.01-39.52-22.21-77.1-14.34-117.81-5.28-33.38 40.7-67.47 38.42-87.88-24.29 10.65-51.31 39.52-60.05 53.84-11.25-30.04 48.22-33.31 26.51-68.75 2.99-19.14-2.45-56.63-5.98-15.42 8.45 36.61-50.67 27.58-29.85-7.95 2.1-35.24-13.19 29.22-8.25 38.76-37.39 22.63 19.55 66.62-2.97 97.49-3.11 35.24-14.89 76.79-1.08 109.02-16.1 61.39 62.54 49.37 88.11 16.36 18.68-15.77 1.21 20.14 21.18-4 31.71-18.16 6.8-68.1 8.38-73.66 28.99 6.67 3.45 75.04 52.67 68.97 42.27 10.64 70.78-21.26 109.02-.26 46 16.85 64.01-29.92 72.78-56.51-9.18 42.19-11.55 87.46 2.34 129.37-.27 16.23 34.58 41.72 16.63 51.65-16.53-45.16-1.41 56.82-4.73 74.17 12.93 38.37-19.11 51.87-32.04 81.26-34.26 34.66 6 7.06 23.61 3.51-.3 14.79-23.46 58.23-16.38 64.23zM-122 336.55c-14.71-22.02 32.77-.68 0 0zm-150.96-.22c-16.86-21.49 30.454-.04 0 0zm-55.39-16.15c16.74-33.08 25.986-1.66 0 0zm138.155-15.466c.08-27.97 18.75 1.55 0 0zm.913-19.77c-3.76-26.82 16.777.1 0 0zm-89.503-35.107c1.737-18.16 26.887-2.546 0 0zm168.88-1.977c-15.11-34.084 27.35 16.11 0 0zm-88.496-11.426c-10.03-15.028 45.47-7.82 0 0zm53.09-3.49c-21.06 1.39-44.41-14.3-8.98-8.24 20.08.2 58.36 6.847 15.58 9.105l-6.61-.87zm-49.95-12.38c-27.04-20.294 17.55 2.43 17.41-26.556 15.76-10.27-10.42 33.846-17.41 26.56zM-67.1 687.23c5.63-12.778-12.197 11.905 0 0zm-8.492-111.38c5.184-47.803 1.068-97.006-4.806-144.108-8.554-57.677-24.225 15.42-11.948 34.54 2.57 37.94 8.3 78.133 14.62 114.257l2.133-4.69zm-118.18-390.076c25.48-6.73 47.154-38.194 35.057-50.89 26.85-24.388-11.504-45.16-17.504-63.8-22.59 4.41-39.52-3.38-56.25 19.07-15.28 3.24-18.93-1.85-6.1 13.753-.89 28.604 6.08 83.246 44.81 81.866zm-11.04-13.127c-6.633-14.24 31.66 4.087 0 0zm-14.25-9.937c.616-20.874 67.7 1.56 17.27.998-5.705-.37-11.744 1.243-17.27-.997zm4.65-14.606c-14.923-28.22 24.313 13.923 27.88-14.41 17.116 18.95-18.53 14.662-27.88 14.41zm7.99-9.584c15.756-25.44-51.035-19.713-16.18-28.91 30.896.1-41.116-9.16 6.558-8.486 16.09.88 19.31 30.25 9.62 37.396zm22.49-19.088c-17.583-16.533 43.987-6.093 8.776.06l-8.772-.06zm15.007-12.3c-63.885.22 26.996-11.54 0 0zm-268.87 20.24c1.956-18.76-9.243-49.117-8.295-14.103 1.45 2.79 1.735 25.48 8.295 14.1zm304.028-10.165c1.862-22.57-20.643 28.163 0 0zm-269.61-19.27c3.806-24.177.872-44.008-5.016-8.918-7.14 13.64 6 45.85 5.014 8.91zm-12.702 3.196c-1.34-9.285-.89 11.857 0 0zm276.57 1.138c-2.77-16.72 8.91-32.24 8.08-6.39 15.15-22.36-14.67-36.09-16.85-60.21-10.25-4.69-13.24 27.89-13.95-1.68-19.94-40.55-73.11-.91-90.7 22.76-3.58 14.71-8.86 59.15 2.86 22.25 24.29 13.24 45.61-32.75 65.56-11.16 12.66-11.21 29.99-25.15 18.54 2.41-2.43 13.61 19.42 31.09 26.5 32.05zm-255.73-16.9c-1.63-23.63-3.32 29.16 0 0z"/><path d="M385.138 1178.418c-2.906-1.353-7.565-4.617-10.353-7.254-2.79-2.638-5.767-4.795-6.62-4.795-3.168 0-8.84-3.81-11.764-7.89-1.66-2.32-5.71-9.32-9.01-15.56-6.19-11.71-8.66-14.31-15.07-15.84-6.39-1.53-14.73-7.79-17.49-13.14-1.79-3.47-1.76-11.67.08-17.71 1.99-6.55 1.82-14.85-.41-20.54-1.02-2.6-3.04-8.44-4.48-12.96-5.85-18.4-20.33-47.39-44.01-88.14-13.48-23.2-16.42-29.63-20.57-44.98-1.86-6.87-2.08-9.91-1.88-25.4l.23-17.61-4.56-7.58c-2.51-4.17-6.16-10.2-8.11-13.39-7.93-13-17.2-36.63-22.22-56.66-8.26-32.91-17.72-61.74-26.39-80.38-4.87-10.47-11.82-26.13-13.97-31.48-4.06-10.08-5.17-12.23-6.01-11.7-.45.28-1.08 6.51-1.4 13.85-.32 7.34-1.05 18.14-1.62 23.99-2.72 27.96-2.79 38.62-.37 60.05 2.89 25.61 2.87 27.63-.32 41.16-1.44 6.12-2.56 12.66-2.5 14.52.2 5.69 2.2 15.6 4.68 23.24 5.48 16.83 6.57 40.86 2.91 63.91-1.09 6.84-1.73 18.1-1.97 34.38-.19 13.32-1.12 34.87-2.07 47.89l-1.71 23.68 2.96 11.19c1.63 6.15 4.8 16.85 7.04 23.77 6.96 21.47 5.6 24.64-14.91 34.69-7.26 3.56-14.32 7.67-15.68 9.14-2.98 3.21-5.76 8.48-8.21 15.61-3.95 11.48-9.29 17.74-16.84 19.72-2.65.69-6.79 2.42-9.18 3.83-2.4 1.41-7.47 3.5-11.28 4.64l-6.92 2.08-6.15-2.89c-8.79-4.12-11.5-7.26-11.46-13.28.02-2.63-.03-6.09-.11-7.69-.27-5.55 1.75-18.5 3.45-22.08 2.03-4.28 6-7.81 11.89-10.58 5.44-2.55 12.41-9.32 17.01-16.51 1.97-3.07 3.58-5.78 3.58-6.02 0-.24 2.14-3.83 4.74-7.97 2.61-4.15 5.03-8.89 5.38-10.54.84-4-.9-17.47-3.9-30.23-3.08-13.15-15.62-64.41-16.88-69.05-.52-1.93-.95-4.79-.95-6.36 0-1.57-.92-6.31-2.04-10.54-4.44-16.7-7.06-31.93-9.66-56.11-1.08-10.04-.39-21.66 1.97-33.34 1.14-5.61 1.41-9.4.87-12.1-.43-2.17-1.91-10.16-3.27-17.75-1.64-9.15-3.75-17.02-6.26-23.33-2.07-5.24-9.07-25.39-15.56-44.79-13.04-39.01-11.56-36.12-26.93-52.59-6.32-6.77-9.17-10.79-12.44-17.52-2.33-4.81-5.7-11.5-7.49-14.87-5.06-9.55-5.07-13.16-.05-20.5 3.41-4.99 8.06-19.82 9.74-31.06 1.26-8.4 1.32-14.18.44-39.51-2.44-70.2-.63-104.99 6.28-121.19 5.32-12.47 10.41-26.83 11.79-33.27 1.12-5.25 1.65-17.25 2.2-49.54.66-38.87.91-43.41 2.83-51.62 2.65-11.32 7.55-21.14 13.28-26.63 4.62-4.44 15.22-10.77 22.7-13.57 10.07-3.77 12.86-7.21 15.37-18.91.6-2.81 1.82-6.5 2.7-8.2 1.29-2.49 1.59-5.87 1.54-17.15-.07-15.78-1.23-21.8-7.85-40.83-5.03-14.48-5.52-18.52-3.59-29.62.86-4.92 2.21-15.16 3-22.76 1.59-15.31 3.4-20.17 11.44-30.68 9.99-13.05 16.22-17.39 49.22-34.22 10.21-5.21 28.79-5.19 37.54.03 6.34 3.79 16.31 14.68 23.7 25.88 3.51 5.33 7.64 11.43 9.17 13.56 1.54 2.13 4.66 7.36 6.93 11.62 2.28 4.26 4.5 8.4 4.94 9.2 2.44 4.45 5.79 17.23 6.62 25.28.53 5.08.96 22.34.97 38.36.01 27.76.12 29.66 2.52 40.6 1.39 6.31 3.1 14.31 3.82 17.77 1.9 9.17 1.95 9.24 9.9 13.61 10.22 5.61 14.8 10.22 22.68 22.85 7.79 12.48 10.82 20.92 12.39 34.51 2.5 21.67 2.81 26.03 2.92 40.78.18 24.18 2.41 45.98 6.81 66.76 1.04 4.89 2.32 11.94 2.86 15.67.53 3.73 1.48 9.83 2.11 13.56 1.44 8.58 1.48 40.4.07 53.75-1.17 11.06-3.13 19.65-9.04 39.61-2.27 7.67-4.61 18.55-5.72 26.63-1.03 7.51-2.51 15.95-3.28 18.75-1.28 4.65-1.24 5.72.46 12.19 3.54 13.53 5.52 29.47 4.77 38.4-.4 4.8-.28 10.24.29 13.05.54 2.64.72 8.32.39 12.62-.42 5.48-.07 11.1 1.19 18.91 1.42 8.82 1.83 17.47 2 42.1.34 48.56 1.35 62.88 5.41 76.99 2.51 8.7 3.39 12.68 4.47 20.33 3.63 25.62 4.44 28.97 8.54 35.25 5.45 8.36 13.31 26.28 15.46 35.24.99 4.1 2.7 10.51 3.8 14.24 2.25 7.59 4.57 20.78 5.45 30.99 1.04 12.02 2.61 25.07 6.46 53.75 2.26 16.79 4.89 32.8 6.23 37.89 2.68 10.17 8.86 23.57 15.26 33.1 9.05 13.47 10.42 15.1 23.67 28.18 15.1 14.92 17.24 18.99 16.84 32.05-.66 21.73-1.67 26.78-6.07 30.56-3.23 2.78-8.26 4.78-11.97 4.78-1.06 0-4.31-1.11-7.22-2.46zm15.346-4.724c3.312-3.31 2.254-5.013-5.456-8.778-9.196-4.49-15.133-11.286-11.185-12.8.995-.383 2.633.782 4.847 3.448 2.368 2.85 4.087 4.026 5.887 4.026 2.523 0 2.512-.03-1.41-4.117-5.1-5.312-6.11-9.75-2.72-11.97 1.317-.862 2.395-2.375 2.395-3.36 0-.986.872-2.258 1.937-2.828 1.11-.596 1.93-2.028 1.93-3.367 0-3.835 2.04-4.024 5.01-.465 2.01 2.416 2.73 2.827 2.73 1.568 0-2.79-2.86-7.63-7.09-12.02-4.86-5.03-6.72-5.32-6.3-.97.25 2.65-.05 3.2-1.9 3.46-1.88.27-2.62-.64-5.13-6.29-5.32-11.99-7.95-16.85-11.59-21.44-5.19-6.55-10.64-15.34-9.94-16.04.33-.33.06-.6-.59-.6-1.36 0-7.65-12.98-10.68-22.03-3.36-10-9.49-50.35-13.08-85.95-2.08-20.63-4.16-33.33-6.89-42.13-1.24-3.99-2.57-9-2.95-11.13-1.73-9.64-12.13-33.86-14.24-33.16-.64.22-1.55 2.45-2.01 4.96-.72 3.91-1.14 4.53-2.91 4.28-2-.28-2.09-.91-2.72-17.72-.36-9.59-1.12-18.95-1.7-20.81-.58-1.86-1.05-5.59-1.05-8.29 0-4.46-.76-7.95-5.37-24.64-3.61-13.04-4.43-24.06-4.89-65.85-.41-36.39-1.28-53.26-2.99-57.72-1.34-3.48-4.97-.34-10.41 9-1.92 3.3-4.3 6.25-5.3 6.57-1 .31-3.37 2.08-5.27 3.93-1.91 1.85-4.13 3.37-4.93 3.37-.81 0-3-1.53-4.86-3.39-1.87-1.86-3.81-3.39-4.32-3.39-.52 0-1.62-.68-2.46-1.52-2.43-2.43-1.88-9.66 1.35-17.85 3.11-7.87 3.82-16.62 1.92-23.49-1.62-5.82-3.53-4.33-6.29 4.92-2.44 8.17-9.1 12.92-13.06 9.33-1.71-1.54-1.9-3.01-1.87-14.4.02-7.28.62-15.36 1.42-18.97.76-3.46 1.4-9.26 1.42-12.88.06-11.53 3.15-22.11 9.26-31.64 1.2-1.87 2.65-5.59 3.22-8.25.95-4.44 2.76-34.05 2.77-45.52 0-2.66.29-11.26.64-19.11l.64-14.27-3.33-10.07c-3.62-10.92-7.85-20.2-14.47-31.71-9.12-15.84-9.07-16.67 3.12-55.5 2.78-8.86 4-18.98 2.28-18.96-.4.01-3.18 2.11-6.17 4.67-11.24 9.62-22.62 11.66-37.66 6.75-8.14-2.66-19.76-10.48-22.52-15.16-3.31-5.59 1.26-8.42 5.03-3.12 3.07 4.3 12.69 10.26 21.1 13.06 4.14 1.38 8.24 2.51 9.11 2.51 1.96 0 10.73-2.59 15.63-4.62 3.79-1.57 11.35-8.95 11.37-11.1 0-.67 1.08-3.41 2.39-6.07 4.34-8.84 2.82-22.32-3.53-31.11-4.56-6.31-5.03-7.92-3.18-10.75 1.16-1.77 1.36-3.37.81-6.4-1.27-6.94-.18-8.61 5.16-7.96 4.89.6 5.21 1.14 5.05 8.61-.16 7.23 1.47 23.21 2.54 24.94.34.55.98 9.36 1.42 19.59.5 11.71 1.33 20.19 2.23 22.94.79 2.4 1.91 7.21 2.49 10.7 1.56 9.4 3.6 15.55 6.41 19.34 4.29 5.79 10.85 22.28 9.64 24.24-.76 1.23-4.06 1.2-4.82-.03-2.07-3.34-2.39.78-1.8 22.55.45 16.45.3 25.4-.5 29.78-.63 3.45-1.32 10.62-1.54 15.95-.22 5.33-.84 11.86-1.36 14.53-.53 2.67-1.21 14.43-1.5 26.15-.63 24.44-1.85 31.38-6.86 38.73-4.01 5.89-7.27 17.23-7.27 25.31 0 3.31-1.12 10.22-2.51 15.52-2.03 7.73-2.43 11.16-2.13 18 .41 9.12.93 10.44 3.46 8.85 2.62-1.64 8.22-20.59 9.8-33.15.48-3.85 1.4-7.62 2.04-8.39 2.29-2.76 3.01-.31 2.39 8.11-.55 7.49-.35 9.15 1.93 15.64 1.67 4.77 2.74 10.26 3.1 15.98.5 7.96.32 9.3-2.1 15.35-2.81 7.01-4.25 14.24-2.81 14.12.86-.07 8.16-14.34 10.12-19.78.57-1.6 1.43-7.62 1.9-13.39.89-10.92 3.08-17.6 5.79-17.6 1.07 0 1.43 1.07 1.37 4.12-.05 2.27.04 4.12.2 4.12.15 0 1.45-1.17 2.88-2.6l2.6-2.6 1.71 2.12c1.93 2.39 3.36 2.68 4.46.9 1.33-2.15 2.1-13.66 1.24-18.64-.46-2.67-1.53-8.95-2.38-13.97-.85-5.03-2.83-12.15-4.4-15.84-3.62-8.51-3.63-10.22-.04-11.47 3.3-1.15 3.57-2 5.03-15.52.69-6.42 2.92-16.47 6.18-27.94 7.24-25.4 8.02-29.45 9.31-48.2 1.77-25.64.15-46.52-5.8-74.83-3.36-16-4.9-31.53-6.4-64.51-1.57-34.66-2.51-43.99-5.37-53.38-2.19-7.2-2.52-7.87-9.47-19.12-6.76-10.95-10.56-15.02-17.84-19.07-3.17-1.76-6.71-3.78-7.86-4.47-2.58-1.56-11.01-.91-17.1 1.32-11.23 4.12-18.13 5.37-32.65 5.94-15.79.61-18.65.01-16.74-3.56.79-1.49 2.82-1.77 15.23-2.18 11.33-.37 16.44-1.01 24.48-3.09 5.59-1.44 10.82-3.27 11.62-4.07 1.46-1.46.64-2.49-6.517-8.17-3.808-3.02-13.22-7.76-17.17-8.65-6.39-1.43-9.13-3.02-14.49-8.41-6.01-6.05-7.8-10.19-9.73-22.59-.874-5.59-2.134-10.72-2.8-11.39-.975-.99-2.334-.35-6.97 3.26-12.12 9.43-26.72 15.22-40.625 16.12l-3.87.25-.72 8.23c-1.91 21.87-1.88 21.75-5.08 22.12-1.656.19-4.56 1.86-6.78 3.9-2.14 1.97-7.05 5.75-10.91 8.39-3.86 2.65-7.02 5.35-7.02 6.01 0 .9 5.07 1.26 20.56 1.45 18.69.24 20.6.42 20.9 1.96.55 2.83-3.26 3.42-24.4 3.78l-20.13.34-2.29-2.66c-2.23-2.59-5.61-3.52-6.66-1.83-.28.46-4.12 2.27-8.53 4.02-19.85 7.88-27.3 16.3-31.863 36.01-1.92 8.3-2.11 12.07-2.35 47.27-.29 41.93-1.35 53.767-5.89 65.728-1.34 3.54-3.48 9.35-4.74 12.93-1.27 3.58-2.93 7.72-3.69 9.2-6.41 12.48-7.66 37.31-6.41 127.64.39 28.02.23 32.85-1.25 39.22-2.04 8.75-8.07 24.67-10.71 28.26-2.608 3.54-1.76 7.06 4.02 16.72 2.56 4.29 5.49 9.97 6.5 12.63 1.22 3.218 4.102 7.2 8.59 11.868 3.713 3.867 7.08 7.03 7.48 7.03 1.6 0-2.55-7.5-6.68-12.08-5.358-5.93-6.55-8.65-8.978-20.443-1.04-5.05-2.336-10.02-2.876-11.03-2.49-4.66.26-8.61 3.78-5.42 1.81 1.64 3.74 7.73 5.92 18.71.66 3.33 1.765 6.82 2.45 7.75 2.52 3.42 2.76-1.66.58-12.25-2.2-10.74-2.69-26.24-1.16-36.89.65-4.5 4.99-25.49 8.61-41.64 1.27-5.64 1.91-13.43 3.09-37.77.68-14 1.56-22.29 2.98-28.09 2.08-8.54 8.65-22.1 15.48-31.96 2.67-3.86 4.1-7.33 5.18-12.59.817-4 2.14-9.66 2.947-12.59 3.45-12.6 7.4-33.19 7.99-41.67.46-6.69.31-7.52-1.87-10.17-3.76-4.57-9.15-14.09-10.85-19.13-3.04-9.08-.855-26.57 4.7-37.55 2.29-4.53 2.61-6.11 2.21-11.18-.51-6.51.39-9.1 3.14-9.1 1.89 0 2.29 1.14 3.48 9.84.53 3.84.12 5.62-2.78 12.1-4.27 9.55-6.91 22.18-6.03 28.83.71 5.34 4.78 13.73 9.34 19.26 3.514 4.27 8.12 5.72 18.36 5.81 6.2.05 8.28-.38 13.56-2.87 3.43-1.61 9.16-5.18 12.74-7.93 7.08-5.44 8-5.79 8.91-3.41.91 2.36-1.72 5.71-8.22 10.5-9.35 6.89-15.06 9.24-24.25 10l-8.12.67.31 14.53c.26 12.12-.01 15.755-1.64 21.95-3.49 13.335-8.46 22.08-20.1 35.32-3.81 4.33-8.7 10.875-10.88 14.535-8.23 13.85-9.13 18.96-11.69 66.2-.475 8.79-1.323 17.17-1.88 18.62-.56 1.45-1.68 6.46-2.5 11.13-.82 4.675-2.59 13.295-3.93 19.155-3.35 14.624-4.02 28.46-1.94 40.19.9 5.06 2.21 12.69 2.92 16.95 1.58 9.51 2.63 13.564 5.75 22.27 1.34 3.73 2.45 8.753 2.46 11.17.03 5.63.81 8.28 12.43 42.58 11.41 33.643 16.02 45.51 21.72 55.83 7.26 13.143 8.06 16.8 3.68 16.8-1.63 0-1.966.63-1.96 3.64.01 5.792 3.424 15.47 6.94 19.67 1.77 2.12 5.11 5.8 7.41 8.18 5.16 5.323 5.14 7.87-.05 7.47-3.53-.27-3.54-.26-3.004 3.03 1.084 6.69-3.37 5.55-7.6-1.938-2.38-4.22-3.21-5.01-4.29-4.11-1.864 1.55-1.82 18.85.086 31.39.81 5.32 2.12 14.04 2.9 19.37.79 5.32 2.33 13.38 3.43 17.91 1.09 4.53 2.64 11.5 3.44 15.5 2.75 13.71 9.52 43.34 11.63 50.843.74 2.664 2.2 8.55 3.24 13.075 1.03 4.53 3.083 13.25 4.56 19.37 2.28 9.48 2.68 13.16 2.66 24.7-.02 16.31-.71 20.82-3.2 20.82-.97 0-2.32-.66-2.99-1.466-1.63-1.97-2.97-.77-7.42 6.67-5.86 9.82-11.11 15.27-19.39 20.18-4.76 2.83-8.14 5.55-8.87 7.14-1.24 2.73-1.42 2.68 3.15.83 1.48-.61 6.394 4.11 6.394 6.14 0 2.53-2.98 8.27-6.76 13.02-5.17 6.49-4.94 8.38.26 2.22 8.98-10.61 10.18-11.71 11.45-10.45 1.52 1.5.39 4.15-4.5 10.55-2.1 2.75-3.1 4.8-2.44 5.02 1.58.528 7.19-3.52 9.37-6.752 1.94-2.89 3.88-4.07 5.27-3.21 2.33 1.44-3.57 9.32-10.13 13.52-6.01 3.84-7.76 5.78-7 7.77 1.44 3.73 7.15 2.64 18.65-3.56 3.8-2.045 7.66-3.72 8.59-3.72 3.17 0 8.79-3.99 11.34-8.05 2.69-4.28 5.27-10.94 8.9-22.94 1.21-3.99 3.1-9.01 4.21-11.14 2.61-5.01 7.72-10.17 10.08-10.17 2.41 0 3.39 2.65 1.88 5.06-.653 1.05-.95 2.15-.66 2.44.83.83 9.28-2.58 14.458-5.83 7.65-4.8 7.986-8.69 2.175-24.97-3.43-9.61-5.38-11.96-5.44-6.55-.04 3.9-2.24 14.5-3.4 16.38-.46.74-.72 2.69-.58 4.34.15 1.75-.34 3.49-1.19 4.194-1.19.99-1.7.8-2.9-1.04-1.29-1.99-1.293-3.14-.05-9.99 1.85-10.21 1.846-18.54-.01-24.8-2.3-7.73-2-12.14 1-14.92 2.37-2.2 2.586-3.2 3.86-18.11 1.22-14.24 3.02-59.21 2.964-73.9-.01-3.19.73-10.82 1.65-16.95 2.68-17.89 3.06-31.78 1.2-44.36-1.51-10.197-5.4-23.627-7.49-25.84-1.69-1.786-2.73 1.78-2.75 9.36-.02 8.71-.54 10.49-3.06 10.49-2.64 0-3.5-3.18-3.28-12.11.14-5.79.83-9.344 2.72-14.046 1.39-3.47 3.904-11.09 5.58-16.95 4.293-15.02 4.63-24.42 1.843-51.39-2.24-21.66-2.24-21.86-.59-41.36 2.64-31.23 3.81-57.38 3.06-68.34l-.69-10.15-7.88-8.33c-4.34-4.58-9.41-9.994-11.28-12.04-3.59-3.93-15.79-21.23-19.82-28.1-1.32-2.25-7.42-9.43-13.55-15.95C89 582.44 87.92 580.85 90 578.77c.937-.936 1.962-1.152 2.914-.613 4.146 2.346 24.978 26.25 32.338 37.107 4.53 6.68 9.464 13.89 10.965 16.02 4.236 6.014 17.386 19.105 18.688 18.605.64-.25 1.713-2.49 2.38-4.99 2.514-9.4 17.106-27.19 21.738-26.51 3.6.53 2.946 2.35-3.415 9.51-9.87 11.12-12.37 15.92-12.99 24.93-.434 6.35-.188 8.36 1.483 12.14 1.11 2.49 3.38 9.37 5.06 15.29 1.68 5.92 5.19 15.51 7.81 21.31 2.62 5.8 4.76 10.79 4.76 11.1 0 .31 2.15 4.99 4.78 10.42 5.51 11.37 13.86 32.91 16.59 42.78 1.03 3.73 2.78 9.83 3.88 13.56 2.17 7.34 3.03 10.51 7.58 27.87 6.83 26.04 16.56 49.08 27.36 64.82.99 1.44 1.81 2.97 1.81 3.39.01.42 1.61 2.51 3.58 4.64 3.77 4.09 10.91 18.81 10.94 22.55.03 3.23-2.81 3.9-5.01 1.18-3.11-3.84-3.95-1.32-3.45 10.32.74 17.07 6.45 32.57 20.47 55.53 2.44 3.99 6.68 11.62 9.42 16.94s5.75 10.77 6.69 12.1c2.17 3.08 18.08 34.81 22.58 45.04 1.87 4.26 5.17 12.97 7.31 19.37 6.77 20.15 7.52 22.07 12.11 31.13 4.51 8.91 5.23 11.39 3.61 12.39-1.82 1.13-4.13-.83-6.51-5.52-2.25-4.45-2.59-4.72-4.01-3.3-.95.96-1.71 3.82-1.98 7.46-.39 5.45-.21 6.12 2.33 8.77 3.14 3.28 10.2 7.65 12.35 7.65 2.15 0 2.46-2.04.84-5.48-2.75-5.82.93-8.45 4.6-3.29 2.65 3.72 4.7 8.67 6.99 16.92 2.04 7.32 11.32 24.49 15.49 28.67 1.45 1.45 4.62 3.13 7.05 3.74 3.16.79 5.79 2.48 9.24 5.9 9.1 9.05 16.69 10.9 22.19 5.41zm-103.502-285.74c-.906-1.09-.745-2.484.748-6.488 2.26-6.06 4.298-7.77 6.56-5.506 1.424 1.423 1.374 1.966-.602 6.56-2.42 5.626-4.888 7.626-6.706 5.435zm-23.353-5.557c-7.51-7.732-12.13-21.663-8.26-24.876 2.31-1.92 4.47.3 4.48 4.63.01 4.88 3.84 12.48 8.59 17.03 4.62 4.43 5.23 7.31 1.56 7.31-1.58 0-3.81-1.43-6.39-4.08zm-165.56-5.52c-2.34-1.976-2.35-2.046-.51-3.47 1.03-.8 2.87-1.454 4.08-1.454 3.39 0 4.25-2.91 3.98-13.47-.21-8.045.02-9.963 1.39-11.34 3.08-3.103 4.3-.37 5 11.263.5 8.308.34 11.255-.73 13.32-3.22 6.232-9.2 8.558-13.23 5.15zm75.87-262.184c-.89-2.303.96-4.665 3.91-5.017 2.14-.256 2.56.074 2.56 1.985 0 4.15-5.13 6.55-6.48 3.04zm20.68-44.347c-.29-.76.35-3.702 1.42-6.538 1.07-2.835 2.36-6.524 2.86-8.198 1.25-4.213 3.31-5.816 5.31-4.15 1.07.888 1.36 2.17.96 4.233-.68 3.502-4.36 13.097-5.68 14.824-1.26 1.637-4.24 1.533-4.89-.172zM84.35 560.88c-3.56-4.198-9.366-16.793-8.983-19.482.214-1.505.973-2.114 2.635-2.114 1.967 0 2.778 1.048 5.16 6.67 1.553 3.67 3.92 8.325 5.255 10.344 4.346 6.568.903 10.445-4.068 4.58zm49.016-27.493c-3.546-2.984-3.88-6.438-.827-8.576 2.7-1.89 4.92-1.9 8.54-.03 3.47 1.8 3.91 6.19.92 9.18-2.6 2.6-5.07 2.44-8.64-.57zm74.593-56.49c-1.05-.665-1.22-2.252-.73-6.965.92-8.8 6.3-18.295 10.37-18.295 2.84 0 2.82 2.547-.04 7.058-1.51 2.38-3.3 6.888-3.97 10.015-1.88 8.713-2.77 10.012-5.66 8.186zm-124.28-75.38c-1.46-.897-2.83-2.12-3.06-2.718-.68-1.77.99-3.64 3.43-3.82 1.92-.14 2.22-.62 1.96-3.11-.35-3.41 1.48-4.59 5.06-3.23 2.9 1.1 3.58 2.19 3.69 5.92.05 1.94-.72 3.74-2.25 5.21-3.24 3.13-5.76 3.62-8.84 1.72zm133.62-2.255c-.93-.543-1.7-1.51-1.69-2.15.01-3.016 2.24-8.65 4.47-11.3 4.36-5.186 8.14-3.077 8.07 4.505-.04 3.865-1.97 6.984-5.52 8.88-2.5 1.337-3.15 1.345-5.35.065zm-67.61-107.488c-1.65-1.65-1.79-2.26-.78-3.473.77-.93 2.15-1.28 3.77-.96 1.79.36 3.81-.32 6.83-2.33 5-3.31 10.01-3.78 11.47-1.06 1.08 2.03-.3 4.02-2.78 4.02-.83 0-3.9 1.29-6.83 2.87-6.35 3.42-9 3.63-11.69.94zm4.21-11.576c-2.22-.892-3.85-4.896-2.73-6.705.34-.563 1.97-1.023 3.61-1.023 4.33 0 5.81-2.31 11.52-17.917 3.65-9.982 6.14-14.043 8.61-14.043 2.6 0 2.51 2.356-.33 8.838-1.26 2.863-3.24 8.116-4.42 11.674-3.07 9.312-7.52 17.047-10.77 18.73-1.53.788-2.91 1.406-3.07 1.373-.16-.034-1.26-.45-2.44-.927zm-13.1-18.14c-.83-.932-2.71-5.745-4.19-10.697-2.51-8.4-2.58-9.11-1.07-10.61 1.41-1.41 1.77-1.44 2.91-.19 1.43 1.56 3.5 7.08 5.95 15.85 1.31 4.69 1.37 5.86.32 6.53-1.81 1.15-2.25 1.06-3.94-.85zm255.57 887.404c-.32-.822-1.03-1.494-1.58-1.494-.64 0-.58.694.17 1.893 1.33 2.14 2.27 1.88 1.4-.39zm4.56-6.82c-.59-1.537-2.29-2.016-2.29-.646 0 1.024 1.06 2.098 2.07 2.098.43 0 .53-.654.22-1.453zm-320.91-21.807c0-1.793-1.77-.954-4.28 2.034-3.45 4.09-2.02 5.96 1.53 1.99 1.51-1.7 2.75-3.51 2.75-4.03zm187.45-409.72c.59-2.89 2.48-7.738 4.2-10.774 2.04-3.59 3.33-7.39 3.69-10.89.64-6.21-1.16-7.62-2.22-1.74-.76 4.14-5.55 16.71-7.6 19.9-.75 1.18-1.45 3.01-1.56 4.07-.72 7.27 1.96 6.84 3.47-.55zm12.05-10.695c0-.533-.43-.7-.96-.37-.54.33-.97 1.034-.97 1.567 0 .532.43.7.97.37.53-.33.96-1.035.96-1.567zm10.64-17.618c.01-2.56-.36-4.423-.82-4.137-1.16.714-2.21 7.79-1.45 9.767 1.02 2.677 2.25-.364 2.27-5.63zm-7.36-4.852c.42-3.726.3-5.43-.35-5.028-.55.335-.99 3.053-.99 6.04 0 6.745.5 6.364 1.33-1.012zm-26.93-208.593c-1.17-13.853-2.12-19.594-4.87-29.254-1.88-6.61-3.67-12.263-3.97-12.562-.96-.95-2.24 2.03-6.37 14.81-2.38 7.36-4.23 15.17-4.5 18.99-.45 6.23-.3 6.79 3.95 14.72 2.43 4.54 5.7 10.16 7.26 12.5 1.56 2.34 3.17 5.34 3.57 6.67.4 1.34 1.87 4.6 3.27 7.27l2.53 4.84.27-10.36c.15-5.7-.38-18.12-1.17-27.6zm-171.85-1.852c3.81-8.24 5.67-16.925 5.58-26.037-.09-8.3-1.12-13.69-2.14-11.137-.32.8-2.13 9.1-4.02 18.45s-3.88 18.5-4.4 20.33c-.53 1.84-.96 4.16-.96 5.16 0 3.13 2.87-.14 5.93-6.76zm26.68-199.15c10.4-8.407 13.87-13.163 13.87-19.026 0-2.53.46-7.1 1.03-10.17.57-3.07.74-6.91.38-8.54-.36-1.64-3.5-7.16-6.99-12.28-11.68-17.17-16.92-32.08-14.79-42.03.55-2.58.74-6.31.43-8.3-.89-5.57 1.25-23.49 3.53-29.59 1.79-4.79 2.92-6.11 9.17-10.73 8.17-6.05 11.61-11.11 13.13-19.34 1.41-7.65.86-8.81-3.21-6.73-1.74.89-3.38 1.91-3.65 2.27-.27.36-2.51 2.03-4.99 3.71-4.59 3.12-7.89 6.82-14.03 15.75-5.26 7.64-6.07 10.38-7.67 25.84-.82 7.85-2.13 18.09-2.92 22.75-1.65 9.65-1.08 13.09 4.88 29.3 5.29 14.39 6.7 22.45 6.75 38.74.05 13.55-.13 15-2.61 21.61-2.99 7.94-3.46 12.77-1.24 12.77.78 0 4.8-2.73 8.92-6.06zm128.98-16.38l-3.25-13.886-.07-31.96c-.08-35.84-.57-42.43-3.91-52.7-2.55-7.84-10.62-23.68-14.82-29.11-1.46-1.89-5.53-7.78-9.05-13.11-6.91-10.46-15.95-20.37-22.18-24.3-11.71-7.39-32.37-3.33-41.3 8.12-3.42 4.38-8.92 15.14-8.91 17.42.02 3.23 4.57 11.4 8.06 14.46 3.71 3.26 6.68 4.31 17.31 6.13 8.92 1.52 13.86 6.2 16.71 15.85 2.43 8.21 5.51 12.24 12.29 16.07 7.24 4.09 12.81 10.84 14.4 17.46.72 3.01.89 11.8.51 26.68-.61 23.85.33 33.16 3.91 38.62 1.13 1.72 4.4 3.97 8.62 5.92 3.74 1.73 10.5 5.56 15.03 8.51 4.63 3.01 8.59 4.99 9.06 4.52.47-.47-.59-6.92-2.42-14.73zm-40.19-30.108c-.24-23.314-.08-21.068-1.56-21.05-3.21.04-3.84 1.745-4.15 11.245-.44 13.712.46 22.99 2.57 26.468.99 1.622 2.14 2.95 2.57 2.95.43 0 .68-8.827.57-19.613zm-52.53 6.597c8.03-1.702 16.73-6.012 25.76-12.76 7.74-5.786 9.27-8.076 11.38-17.032 1.86-7.868 1.96-7.384-1.67-7.735-4.36-.42-4.44-2.572-.37-9.247 5.28-8.65 5.29-9.656.09-15.06-2.52-2.623-5.72-7.46-7.36-11.138-6.73-15.108-6.69-15.063-17.6-17.15-10.4-1.992-15.64-4.727-20.24-10.57-2.13-2.712-4.26-5.074-4.73-5.25-.46-.174-4.74 2.79-9.49 6.586-9.45 7.548-11.22 10.39-12.33 19.864-.74 6.294.41 8.248 4.84 8.253 3.58.004 9.32 3.243 9.32 5.26 0 .78-.73 1.824-1.61 2.32-1.45.812-1.42 1 .33 1.938 1.47.787 2.44.692 3.99-.394 1.88-1.32 2.17-1.25 3.59.91 2.22 3.39 1.69 16.43-.7 16.89-1.1.21-1.87-.51-2.27-2.13-.9-3.57-2.99-4.86-7.43-4.6-3.12.18-4.49-.3-6.6-2.32-1.75-1.67-2.89-2.18-3.33-1.47-3.06 4.94-2.13 15.4 2.17 24.55 4.23 8.99 17.48 28.6 20.41 30.19 3.25 1.76 5.82 1.77 13.83.08zm-14.46-11.39c-2.64-2.643-1.23-3.46 5.78-3.328 7.61.144 9.63 1.648 4.58 3.41-4.06 1.413-8.91 1.374-10.36-.083zm-8.57-7.484c-1.15-.497-2.31-1.282-2.6-1.744-2.56-4.128 15.49-9 20.46-5.523 1.49 1.046 3.13 1.32 5.18.87 3.55-.78 7.6 1.06 7.6 3.46 0 1.16-1.08 1.816-3.64 2.21-7.32 1.13-25 1.606-27.02.727zm2.56-13.307c-2.58-1.02-4.85-3.482-4.85-5.258 0-2.752 1.89-3.188 4.25-.977 2.59 2.432 6.54 2.625 9.82.48 1.49-.98 3.29-1.33 4.83-.946 1.84.462 2.58.188 2.99-1.103 1.72-5.46 2.34-6.3 3.8-5.09 1.74 1.44 1.88 7.74.21 9.88-.7.89-3.29 1.79-6.06 2.09-2.66.29-6.8.75-9.2 1.01-2.4.26-5.01.21-5.81-.1zm18.84-20.732c-.35-.56-.36-2.47-.03-4.24.43-2.32 1.33-3.49 3.24-4.22 4.41-1.67 9.22-2.11 13.17-1.2 7.84 1.82 7.15 4.89-1.84 8.24-6.29 2.35-13.54 3.06-14.55 1.43zm-5.9-12.98c-.88-2.27.43-3.21 6.76-4.86 10.12-2.63 18.06-1.67 18.06 2.19 0 1.02-1.24 1.17-5.67.67-5.16-.58-11.04.47-17.33 3.11-.67.28-1.49-.21-1.82-1.09zm58.05 27.38c1.18-2.42 1.47-4.11.88-5.17-.75-1.34-1.24-1.13-3.46 1.5-3.01 3.58-3.54 8.08-.89 7.59.93-.17 2.49-1.93 3.45-3.91zm-78.87-24.65l2.3-.61-2.3-1.27c-1.27-.7-3.45-1.29-4.85-1.31-2.59-.03-5.23 2.04-4.07 3.2.81.81 5.89.81 8.91 0z"/></g><text x="187.792" y="214.031" font-size="12" font-family="Arial"><tspan x="187.792" y="214.031">Humans</tspan></text><text y="214.031" x="252.641" font-size="12" font-family="Arial"><tspan y="214.031" x="252.641">Butterflies</tspan></text><text y="214.031" x="317.538" font-size="12" font-family="Arial"><tspan y="214.031" x="317.538">Needle Point</tspan></text><text y="214.031" x="392.698" font-size="12" font-family="Arial"><tspan y="214.031" x="392.698">Protozoans</tspan></text><text y="214.031" x="467.024" font-size="12" font-family="Arial"><tspan y="214.031" x="467.024">Molecules</tspan></text><text y="214.031" x="544.965" font-size="12" font-family="Arial"><tspan y="214.031" x="544.965">Atoms</tspan></text><text y="214.031" x="597.425" font-size="12" font-family="Arial"><tspan y="214.031" x="597.425">Atomic Nuclei</tspan></text><g transform="translate(100)"><path fill="url(#l)" stroke="#000" stroke-miterlimit="2" d="M11 235.5h548.335v25H11z"/><path d="M25.335 225.063V270" fill="none" stroke="#000"/><path d="M115 225v45" fill="none" stroke="#000"/><path d="M220 225v45" fill="none" stroke="#000"/><path d="M325 225v45" fill="none" stroke="#000"/><path d="M385 225v45" fill="none" stroke="#000"/><path d="M450 225v45" fill="none" stroke="#000"/><path d="M520 225v45" fill="none" stroke="#000"/><g transform="translate(-11.5,-10)" font-size="12" font-family="Arial"><text x="27" y="297.25"><tspan x="27" y="297.25">10</tspan></text><text x="41.43" y="291.442"><tspan x="41.43" y="291.442" font-size="9">4</tspan></text></g><g transform="translate(58.5,-10)" font-size="12" font-family="Arial"><text x="46.193" y="297.854"><tspan x="46.193" y="297.854">10</tspan></text><text x="60.623" y="292.046"><tspan x="60.623" y="292.046" font-size="9">8</tspan></text><g transform="translate(121.5)"><text x="28" y="297.25"><tspan x="28" y="297.25">10</tspan></text><text x="40.43" y="291.442"><tspan x="40.43" y="291.442" font-size="9">12</tspan></text></g><g transform="translate(227.07031,0.0576172)"><text x="28" y="297.25"><tspan x="28" y="297.25">10</tspan></text><text x="40.43" y="291.442"><tspan x="40.43" y="291.442" font-size="9">15</tspan></text></g></g><g transform="translate(345,-9.9999998)" font-size="12" font-family="Arial"><text x="28" y="297.25"><tspan x="28" y="297.25">10</tspan></text><text x="40.43" y="291.442"><tspan x="40.43" y="291.442" font-size="9">16</tspan></text></g><g transform="translate(410,-9.9999998)" font-size="12" font-family="Arial"><text x="28" y="297.25"><tspan x="28" y="297.25">10</tspan></text><text x="40.43" y="291.442"><tspan x="40.43" y="291.442" font-size="9">18</tspan></text></g><g transform="translate(480.5,-9.9999998)" font-size="12" font-family="Arial"><text x="28" y="297.25"><tspan x="28" y="297.25">10</tspan></text><text x="40.43" y="291.442"><tspan x="40.43" y="291.442" font-size="9">20</tspan></text></g></g><path d="M268.328 312.23v40" fill="none" stroke="#000"/><path d="M343.328 311.73v40" fill="none" stroke="#000"/><path d="M418.328 311.73v40" fill="none" stroke="#000"/><path d="M541.328 312.612v39.62" fill="none" stroke="#000"/><text style="line-height:125%;text-align:center" x="268.5" y="363.5" font-size="12" font-family="Arial" text-anchor="middle"><tspan x="268.5" y="363.5">1 K</tspan></text><text style="line-height:125%;text-align:center" x="342.5" y="364" font-size="12" font-family="Arial" text-anchor="middle"><tspan x="342.5" y="364">100 K</tspan></text><text style="line-height:125%;text-align:center" x="417.5" y="363.5" font-size="12" font-family="Arial" text-anchor="middle"><tspan x="417.5" y="363.5">10,000 K</tspan></text><text style="line-height:125%;text-align:center" x="541" y="363.5" font-size="12" font-family="Arial" text-anchor="middle"><tspan x="541" y="363.5">10,000,000 K</tspan></text><path d="M535.022 21.75v-8.59h1.166l4.512 6.744V13.16h1.09v8.59h-1.166L536.112 15v6.75z" font-size="12" font-family="Arial" fill="#fff"/><text style="text-align:end" x="102.935" y="15" font-size="12" font-family="Arial" text-anchor="end"><tspan x="102.935" y="15">Penetrates Earth&apos;s</tspan><tspan x="102.935" y="30">Atmosphere?</tspan></text><g transform="translate(0,62.5)" font-size="12" font-family="Arial"><text x="125.5" y="46.5" style="line-height:125%;text-align:start" font-weight="bold"><tspan x="125.5" y="46.5">Radio</tspan></text><text x="222.724" y="46.5" style="line-height:125%;text-align:start" font-weight="bold"><tspan x="222.724" y="46.5">Microwave</tspan></text><text x="317.478" y="46.5" style="line-height:125%;text-align:start" font-weight="bold"><tspan x="317.478" y="46.5">Infrared</tspan></text><text x="393.005" y="46.5" style="line-height:125%;text-align:start" font-weight="bold"><tspan x="393.005" y="46.5">Visible</tspan></text><text x="456.028" y="46.5" style="line-height:125%;text-align:start" font-weight="bold"><tspan x="456.028" y="46.5">Ultraviolet</tspan></text><text x="537.004" y="46.5" style="line-height:125%;text-align:start" font-weight="bold"><tspan x="537.004" y="46.5">X-ray</tspan></text><text x="593.887" y="46.5" style="line-height:125%;text-align:start" font-weight="bold"><tspan x="593.887" y="46.5">Gamma ray</tspan></text><g transform="translate(104.36157,-233.68506)"><text y="297.25" x="28"><tspan y="297.25" x="28">10</tspan></text><text y="291.442" x="40.43"><tspan y="291.442" x="40.43" font-size="9">3</tspan></text></g><g transform="translate(211.86157,-233.68506)"><text y="297.25" x="28"><tspan y="297.25" x="28">10</tspan></text><text y="291.442" x="41.43"><tspan y="291.442" x="41.43" font-size="9">2</tspan></text></g><g transform="translate(299.86157,-233.68506)"><text y="297.25" x="28"><tspan y="297.25" x="28">10</tspan></text><text y="291.442" x="41.43"><tspan y="291.442" x="41.43" font-size="9">5</tspan></text></g><g transform="translate(387.36157,-233.68506)"><text y="297.25" x="1"><tspan y="297.25" x="1">0.510</tspan></text><text y="291.442" x="40.43"><tspan y="291.442" x="40.43" font-size="9">6</tspan></text></g><g transform="translate(447.36157,-233.68506)"><text y="297.25" x="28"><tspan y="297.25" x="28">10</tspan></text><text y="291.442" x="40.93"><tspan y="291.442" x="40.93" font-size="9">8</tspan></text></g><g transform="translate(510.36157,-233.68506)"><text y="297.25" x="28"><tspan y="297.25" x="28">10</tspan></text><text y="291.442" x="40.93"><tspan y="291.442" x="40.93" font-size="9">10</tspan></text></g><g transform="translate(588.36157,-233.68506)"><text y="297.25" x="28"><tspan y="297.25" x="28">10</tspan></text><text y="291.442" x="40.93"><tspan y="291.442" x="40.93" font-size="9">12</tspan></text></g><text y="46.603" x="102.976" style="text-align:end" text-anchor="end"><tspan y="46.603" x="102.976">Radiation Type</tspan></text><text y="63.5" x="19.866"><tspan y="63.5" x="19.866">Wavelength (m)</tspan></text></g><text style="text-align:end" x="102.976" y="157.333" font-size="12" font-family="Arial" text-anchor="end"><tspan x="102.976" y="157.333">Approximate Scale</tspan><tspan x="102.976" y="172.333">of Wavelength</tspan></text><text style="text-align:end" x="102.73" y="251.103" font-size="12" font-family="Arial" text-anchor="end"><tspan x="102.73" y="251.103">Frequency (Hz)</tspan></text><text style="text-align:end" x="106.05" y="308" font-size="12" font-family="Arial" text-anchor="end"><tspan x="106.05" y="308">Temperature of</tspan><tspan x="109.378" y="323">objects at which </tspan><tspan x="106.05" y="338">this radiation is the</tspan><tspan x="106.05" y="353">most intense</tspan><tspan x="106.05" y="368">wavelength emitted</tspan></text><text style="line-height:125%;text-align:center" x="268.088" y="376.686" font-size="12" font-family="Arial" text-anchor="middle"><tspan x="268.088" y="376.686">272 C</tspan></text><text style="line-height:125%;text-align:center" x="342.376" y="376.686" font-size="12" font-family="Arial" text-anchor="middle"><tspan x="342.376" y="376.686">173 C</tspan></text><text style="line-height:125%;text-align:center" x="418.501" y="376.686" font-size="12" font-family="Arial" text-anchor="middle"><tspan x="418.501" y="376.686">9,727 C</tspan></text><text style="line-height:125%;text-align:center" x="538.51" y="376.686" font-size="12" font-family="Arial" text-anchor="middle"><tspan x="538.51" y="376.686">~10,000,000 C</tspan></text></svg>